<svg width="1451" height="340" viewBox="0 0 1451 340" fill="none" xmlns="http://www.w3.org/2000/svg">
<path d="M385.168 107.527H396.926V129.695L417.82 107.527H432.499L411.604 128.647L434.521 161H419.767L403.666 136.96L396.926 143.775V161H385.168V107.527ZM447.528 141.678C447.528 143.226 447.678 144.749 447.978 146.246C448.277 147.694 448.777 149.017 449.476 150.216C450.224 151.364 451.198 152.288 452.396 152.987C453.595 153.686 455.092 154.035 456.89 154.035C458.687 154.035 460.185 153.686 461.383 152.987C462.631 152.288 463.605 151.364 464.304 150.216C465.053 149.017 465.577 147.694 465.877 146.246C466.176 144.749 466.326 143.226 466.326 141.678C466.326 140.13 466.176 138.607 465.877 137.11C465.577 135.612 465.053 134.289 464.304 133.14C463.605 131.992 462.631 131.068 461.383 130.369C460.185 129.62 458.687 129.246 456.89 129.246C455.092 129.246 453.595 129.62 452.396 130.369C451.198 131.068 450.224 131.992 449.476 133.14C448.777 134.289 448.277 135.612 447.978 137.11C447.678 138.607 447.528 140.13 447.528 141.678ZM436.894 141.678C436.894 138.582 437.368 135.786 438.317 133.29C439.265 130.744 440.613 128.597 442.361 126.849C444.108 125.052 446.205 123.679 448.652 122.73C451.098 121.732 453.844 121.233 456.89 121.233C459.935 121.233 462.681 121.732 465.128 122.73C467.624 123.679 469.746 125.052 471.494 126.849C473.241 128.597 474.589 130.744 475.538 133.29C476.486 135.786 476.961 138.582 476.961 141.678C476.961 144.773 476.486 147.569 475.538 150.066C474.589 152.562 473.241 154.709 471.494 156.506C469.746 158.254 467.624 159.602 465.128 160.551C462.681 161.499 459.935 161.974 456.89 161.974C453.844 161.974 451.098 161.499 448.652 160.551C446.205 159.602 444.108 158.254 442.361 156.506C440.613 154.709 439.265 152.562 438.317 150.066C437.368 147.569 436.894 144.773 436.894 141.678ZM497.356 122.281H505.145V129.396H497.356V148.568C497.356 150.365 497.655 151.564 498.255 152.163C498.854 152.762 500.052 153.061 501.849 153.061C502.448 153.061 503.023 153.037 503.572 152.987C504.121 152.937 504.645 152.862 505.145 152.762V161C504.246 161.15 503.247 161.25 502.149 161.3C501.051 161.349 499.977 161.374 498.929 161.374C497.281 161.374 495.708 161.25 494.21 161C492.763 160.8 491.464 160.376 490.316 159.727C489.218 159.078 488.344 158.154 487.695 156.956C487.046 155.758 486.721 154.185 486.721 152.238V129.396H480.281V122.281H486.721V110.673H497.356V122.281ZM509.755 134.189C509.905 131.692 510.529 129.62 511.627 127.973C512.726 126.325 514.124 125.002 515.821 124.004C517.519 123.005 519.416 122.306 521.513 121.907C523.66 121.457 525.807 121.233 527.954 121.233C529.901 121.233 531.873 121.382 533.87 121.682C535.867 121.931 537.69 122.456 539.337 123.255C540.985 124.053 542.333 125.177 543.381 126.625C544.43 128.023 544.954 129.895 544.954 132.242V152.387C544.954 154.135 545.054 155.808 545.254 157.405C545.454 159.003 545.803 160.201 546.302 161H535.518C535.318 160.401 535.143 159.802 534.994 159.203C534.894 158.554 534.819 157.904 534.769 157.255C533.071 159.003 531.074 160.226 528.778 160.925C526.481 161.624 524.134 161.974 521.738 161.974C519.89 161.974 518.168 161.749 516.57 161.3C514.973 160.85 513.575 160.151 512.376 159.203C511.178 158.254 510.229 157.056 509.53 155.608C508.881 154.16 508.557 152.437 508.557 150.44C508.557 148.243 508.931 146.446 509.68 145.048C510.479 143.6 511.478 142.452 512.676 141.603C513.924 140.754 515.322 140.13 516.87 139.731C518.468 139.281 520.065 138.932 521.663 138.682C523.261 138.433 524.833 138.233 526.381 138.083C527.929 137.933 529.302 137.709 530.5 137.409C531.698 137.11 532.647 136.685 533.346 136.136C534.045 135.537 534.37 134.688 534.32 133.59C534.32 132.441 534.12 131.543 533.72 130.894C533.371 130.195 532.872 129.67 532.223 129.321C531.624 128.921 530.9 128.672 530.051 128.572C529.252 128.422 528.378 128.347 527.43 128.347C525.333 128.347 523.685 128.797 522.487 129.695C521.288 130.594 520.589 132.092 520.39 134.189H509.755ZM534.32 142.052C533.87 142.452 533.296 142.776 532.597 143.026C531.948 143.226 531.224 143.4 530.425 143.55C529.676 143.7 528.877 143.825 528.029 143.925C527.18 144.025 526.331 144.149 525.482 144.299C524.684 144.449 523.885 144.649 523.086 144.898C522.337 145.148 521.663 145.497 521.064 145.947C520.515 146.346 520.065 146.87 519.716 147.519C519.366 148.169 519.191 148.992 519.191 149.991C519.191 150.94 519.366 151.738 519.716 152.387C520.065 153.037 520.54 153.561 521.139 153.96C521.738 154.31 522.437 154.559 523.236 154.709C524.034 154.859 524.858 154.934 525.707 154.934C527.804 154.934 529.427 154.584 530.575 153.885C531.723 153.186 532.572 152.362 533.121 151.414C533.671 150.415 533.995 149.417 534.095 148.418C534.245 147.42 534.32 146.621 534.32 146.022V142.052ZM554.182 107.527H564.817V136.211L578.223 122.281H590.804L576.2 136.51L592.452 161H579.571L568.936 143.7L564.817 147.669V161H554.182V107.527ZM626.194 143.251C626.194 145.048 626.518 146.571 627.167 147.819C627.816 149.067 628.665 150.091 629.713 150.89C630.812 151.639 632.085 152.213 633.533 152.612C634.981 152.962 636.479 153.136 638.026 153.136C639.075 153.136 640.198 153.061 641.397 152.912C642.595 152.712 643.718 152.362 644.767 151.863C645.815 151.364 646.689 150.69 647.388 149.841C648.087 148.942 648.436 147.819 648.436 146.471C648.436 145.023 647.962 143.85 647.013 142.951C646.115 142.052 644.916 141.303 643.419 140.704C641.921 140.105 640.223 139.581 638.326 139.132C636.429 138.682 634.507 138.183 632.559 137.634C630.562 137.135 628.615 136.535 626.718 135.836C624.821 135.087 623.123 134.139 621.625 132.991C620.127 131.842 618.904 130.419 617.955 128.722C617.057 126.974 616.607 124.877 616.607 122.431C616.607 119.685 617.182 117.313 618.33 115.316C619.528 113.269 621.076 111.571 622.973 110.223C624.87 108.875 627.017 107.877 629.414 107.228C631.81 106.579 634.207 106.254 636.604 106.254C639.399 106.254 642.071 106.579 644.617 107.228C647.213 107.827 649.51 108.825 651.507 110.223C653.504 111.621 655.077 113.419 656.225 115.616C657.423 117.763 658.023 120.384 658.023 123.479H646.639C646.539 121.882 646.19 120.558 645.591 119.51C645.041 118.462 644.292 117.638 643.344 117.039C642.395 116.439 641.297 116.015 640.049 115.765C638.85 115.516 637.527 115.391 636.079 115.391C635.131 115.391 634.182 115.491 633.233 115.691C632.285 115.89 631.411 116.24 630.612 116.739C629.863 117.238 629.239 117.862 628.74 118.611C628.241 119.36 627.991 120.309 627.991 121.457C627.991 122.506 628.191 123.354 628.59 124.004C628.99 124.653 629.763 125.252 630.912 125.801C632.11 126.35 633.733 126.899 635.78 127.449C637.877 127.998 640.598 128.697 643.943 129.545C644.941 129.745 646.314 130.12 648.062 130.669C649.859 131.168 651.632 131.992 653.379 133.14C655.127 134.289 656.625 135.836 657.873 137.784C659.171 139.681 659.82 142.127 659.82 145.123C659.82 147.569 659.346 149.841 658.397 151.938C657.448 154.035 656.025 155.857 654.128 157.405C652.281 158.903 649.959 160.076 647.163 160.925C644.417 161.774 641.222 162.198 637.577 162.198C634.631 162.198 631.761 161.824 628.965 161.075C626.219 160.376 623.772 159.253 621.625 157.705C619.528 156.157 617.856 154.185 616.607 151.788C615.359 149.392 614.76 146.546 614.81 143.251H626.194ZM692.054 135.911C691.355 131.468 688.734 129.246 684.191 129.246C682.493 129.246 681.07 129.645 679.922 130.444C678.774 131.193 677.825 132.192 677.076 133.44C676.377 134.638 675.878 135.986 675.578 137.484C675.279 138.932 675.129 140.38 675.129 141.828C675.129 143.226 675.279 144.649 675.578 146.097C675.878 147.544 676.352 148.868 677.001 150.066C677.7 151.214 678.624 152.163 679.772 152.912C680.92 153.661 682.318 154.035 683.966 154.035C686.512 154.035 688.46 153.336 689.808 151.938C691.206 150.49 692.079 148.568 692.429 146.171H702.689C701.99 151.314 699.993 155.233 696.698 157.929C693.402 160.626 689.184 161.974 684.041 161.974C681.145 161.974 678.474 161.499 676.028 160.551C673.631 159.552 671.584 158.179 669.886 156.432C668.189 154.684 666.866 152.612 665.917 150.216C664.969 147.769 664.494 145.098 664.494 142.202C664.494 139.207 664.919 136.436 665.767 133.889C666.666 131.293 667.964 129.071 669.662 127.224C671.359 125.327 673.431 123.854 675.878 122.805C678.324 121.757 681.12 121.233 684.266 121.233C686.562 121.233 688.759 121.532 690.856 122.131C693.003 122.73 694.9 123.654 696.548 124.902C698.245 126.1 699.618 127.623 700.667 129.471C701.715 131.268 702.315 133.415 702.464 135.911H692.054ZM708.697 107.527H719.331V127.673H719.556C720.904 125.426 722.627 123.804 724.724 122.805C726.82 121.757 728.868 121.233 730.865 121.233C733.711 121.233 736.032 121.632 737.83 122.431C739.677 123.18 741.125 124.253 742.173 125.651C743.222 126.999 743.946 128.672 744.345 130.669C744.795 132.616 745.019 134.788 745.019 137.184V161H734.385V139.132C734.385 135.936 733.885 133.565 732.887 132.017C731.888 130.419 730.116 129.62 727.569 129.62C724.674 129.62 722.577 130.494 721.279 132.242C719.98 133.939 719.331 136.76 719.331 140.704V161H708.697V107.527ZM762.527 141.678C762.527 143.226 762.677 144.749 762.976 146.246C763.276 147.694 763.775 149.017 764.474 150.216C765.223 151.364 766.197 152.288 767.395 152.987C768.593 153.686 770.091 154.035 771.888 154.035C773.686 154.035 775.184 153.686 776.382 152.987C777.63 152.288 778.604 151.364 779.303 150.216C780.052 149.017 780.576 147.694 780.875 146.246C781.175 144.749 781.325 143.226 781.325 141.678C781.325 140.13 781.175 138.607 780.875 137.11C780.576 135.612 780.052 134.289 779.303 133.14C778.604 131.992 777.63 131.068 776.382 130.369C775.184 129.62 773.686 129.246 771.888 129.246C770.091 129.246 768.593 129.62 767.395 130.369C766.197 131.068 765.223 131.992 764.474 133.14C763.775 134.289 763.276 135.612 762.976 137.11C762.677 138.607 762.527 140.13 762.527 141.678ZM751.892 141.678C751.892 138.582 752.367 135.786 753.315 133.29C754.264 130.744 755.612 128.597 757.359 126.849C759.107 125.052 761.204 123.679 763.65 122.73C766.097 121.732 768.843 121.233 771.888 121.233C774.934 121.233 777.68 121.732 780.126 122.73C782.623 123.679 784.745 125.052 786.492 126.849C788.24 128.597 789.588 130.744 790.536 133.29C791.485 135.786 791.959 138.582 791.959 141.678C791.959 144.773 791.485 147.569 790.536 150.066C789.588 152.562 788.24 154.709 786.492 156.506C784.745 158.254 782.623 159.602 780.126 160.551C777.68 161.499 774.934 161.974 771.888 161.974C768.843 161.974 766.097 161.499 763.65 160.551C761.204 159.602 759.107 158.254 757.359 156.506C755.612 154.709 754.264 152.562 753.315 150.066C752.367 147.569 751.892 144.773 751.892 141.678ZM808.31 141.678C808.31 143.226 808.46 144.749 808.76 146.246C809.059 147.694 809.558 149.017 810.257 150.216C811.006 151.364 811.98 152.288 813.178 152.987C814.377 153.686 815.874 154.035 817.672 154.035C819.469 154.035 820.967 153.686 822.165 152.987C823.413 152.288 824.387 151.364 825.086 150.216C825.835 149.017 826.359 147.694 826.659 146.246C826.958 144.749 827.108 143.226 827.108 141.678C827.108 140.13 826.958 138.607 826.659 137.11C826.359 135.612 825.835 134.289 825.086 133.14C824.387 131.992 823.413 131.068 822.165 130.369C820.967 129.62 819.469 129.246 817.672 129.246C815.874 129.246 814.377 129.62 813.178 130.369C811.98 131.068 811.006 131.992 810.257 133.14C809.558 134.289 809.059 135.612 808.76 137.11C808.46 138.607 808.31 140.13 808.31 141.678ZM797.676 141.678C797.676 138.582 798.15 135.786 799.099 133.29C800.047 130.744 801.395 128.597 803.143 126.849C804.89 125.052 806.987 123.679 809.434 122.73C811.88 121.732 814.626 121.233 817.672 121.233C820.717 121.233 823.463 121.732 825.91 122.73C828.406 123.679 830.528 125.052 832.276 126.849C834.023 128.597 835.371 130.744 836.32 133.29C837.268 135.786 837.743 138.582 837.743 141.678C837.743 144.773 837.268 147.569 836.32 150.066C835.371 152.562 834.023 154.709 832.276 156.506C830.528 158.254 828.406 159.602 825.91 160.551C823.463 161.499 820.717 161.974 817.672 161.974C814.626 161.974 811.88 161.499 809.434 160.551C806.987 159.602 804.89 158.254 803.143 156.506C801.395 154.709 800.047 152.562 799.099 150.066C798.15 147.569 797.676 144.773 797.676 141.678ZM844.957 107.527H855.591V161H844.957V107.527ZM894.246 141.678C894.246 143.226 894.395 144.749 894.695 146.246C894.994 147.694 895.494 149.017 896.193 150.216C896.942 151.364 897.915 152.288 899.114 152.987C900.312 153.686 901.81 154.035 903.607 154.035C905.404 154.035 906.902 153.686 908.101 152.987C909.349 152.288 910.322 151.364 911.021 150.216C911.77 149.017 912.294 147.694 912.594 146.246C912.894 144.749 913.043 143.226 913.043 141.678C913.043 140.13 912.894 138.607 912.594 137.11C912.294 135.612 911.77 134.289 911.021 133.14C910.322 131.992 909.349 131.068 908.101 130.369C906.902 129.62 905.404 129.246 903.607 129.246C901.81 129.246 900.312 129.62 899.114 130.369C897.915 131.068 896.942 131.992 896.193 133.14C895.494 134.289 894.994 135.612 894.695 137.11C894.395 138.607 894.246 140.13 894.246 141.678ZM883.611 141.678C883.611 138.582 884.085 135.786 885.034 133.29C885.983 130.744 887.331 128.597 889.078 126.849C890.826 125.052 892.922 123.679 895.369 122.73C897.815 121.732 900.561 121.233 903.607 121.233C906.653 121.233 909.399 121.732 911.845 122.73C914.342 123.679 916.463 125.052 918.211 126.849C919.958 128.597 921.306 130.744 922.255 133.29C923.204 135.786 923.678 138.582 923.678 141.678C923.678 144.773 923.204 147.569 922.255 150.066C921.306 152.562 919.958 154.709 918.211 156.506C916.463 158.254 914.342 159.602 911.845 160.551C909.399 161.499 906.653 161.974 903.607 161.974C900.561 161.974 897.815 161.499 895.369 160.551C892.922 159.602 890.826 158.254 889.078 156.506C887.331 154.709 885.983 152.562 885.034 150.066C884.085 147.569 883.611 144.773 883.611 141.678ZM932.914 129.396H926.548V122.281H932.914V119.285C932.914 115.84 933.988 113.019 936.135 110.823C938.281 108.626 941.527 107.527 945.871 107.527C946.819 107.527 947.768 107.577 948.716 107.677C949.665 107.727 950.589 107.777 951.487 107.827V115.765C950.239 115.616 948.941 115.541 947.593 115.541C946.145 115.541 945.097 115.89 944.448 116.589C943.848 117.238 943.549 118.362 943.549 119.959V122.281H950.888V129.396H943.549V161H932.914V129.396Z" fill="white"/>
<path d="M985.513 143.251C985.513 145.048 985.837 146.571 986.486 147.819C987.135 149.067 987.984 150.091 989.033 150.89C990.131 151.639 991.404 152.213 992.852 152.612C994.3 152.962 995.798 153.136 997.346 153.136C998.394 153.136 999.518 153.061 1000.72 152.912C1001.91 152.712 1003.04 152.362 1004.09 151.863C1005.13 151.364 1006.01 150.69 1006.71 149.841C1007.41 148.942 1007.76 147.819 1007.76 146.471C1007.76 145.023 1007.28 143.85 1006.33 142.951C1005.43 142.052 1004.24 141.303 1002.74 140.704C1001.24 140.105 999.542 139.581 997.645 139.132C995.748 138.682 993.826 138.183 991.879 137.634C989.881 137.135 987.934 136.535 986.037 135.836C984.14 135.087 982.442 134.139 980.944 132.991C979.447 131.842 978.223 130.419 977.275 128.722C976.376 126.974 975.927 124.877 975.927 122.431C975.927 119.685 976.501 117.313 977.649 115.316C978.847 113.269 980.395 111.571 982.292 110.223C984.19 108.875 986.337 107.877 988.733 107.228C991.13 106.579 993.526 106.254 995.923 106.254C998.719 106.254 1001.39 106.579 1003.94 107.228C1006.53 107.827 1008.83 108.825 1010.83 110.223C1012.82 111.621 1014.4 113.419 1015.54 115.616C1016.74 117.763 1017.34 120.384 1017.34 123.479H1005.96C1005.86 121.882 1005.51 120.558 1004.91 119.51C1004.36 118.462 1003.61 117.638 1002.66 117.039C1001.71 116.439 1000.62 116.015 999.368 115.765C998.169 115.516 996.846 115.391 995.398 115.391C994.45 115.391 993.501 115.491 992.553 115.691C991.604 115.89 990.73 116.24 989.931 116.739C989.182 117.238 988.558 117.862 988.059 118.611C987.56 119.36 987.31 120.309 987.31 121.457C987.31 122.506 987.51 123.354 987.909 124.004C988.309 124.653 989.083 125.252 990.231 125.801C991.429 126.35 993.052 126.899 995.099 127.449C997.196 127.998 999.917 128.697 1003.26 129.545C1004.26 129.745 1005.63 130.12 1007.38 130.669C1009.18 131.168 1010.95 131.992 1012.7 133.14C1014.45 134.289 1015.94 135.836 1017.19 137.784C1018.49 139.681 1019.14 142.127 1019.14 145.123C1019.14 147.569 1018.66 149.841 1017.72 151.938C1016.77 154.035 1015.34 155.857 1013.45 157.405C1011.6 158.903 1009.28 160.076 1006.48 160.925C1003.74 161.774 1000.54 162.198 996.896 162.198C993.951 162.198 991.08 161.824 988.284 161.075C985.538 160.376 983.091 159.253 980.944 157.705C978.847 156.157 977.175 154.185 975.927 151.788C974.678 149.392 974.079 146.546 974.129 143.251H985.513ZM1061.33 161H1051.22V155.608H1051C1049.65 157.855 1047.9 159.477 1045.76 160.476C1043.61 161.474 1041.41 161.974 1039.17 161.974C1036.32 161.974 1033.97 161.599 1032.13 160.85C1030.33 160.101 1028.91 159.053 1027.86 157.705C1026.81 156.307 1026.06 154.634 1025.61 152.687C1025.21 150.69 1025.01 148.493 1025.01 146.097V122.281H1035.65V144.149C1035.65 147.345 1036.15 149.741 1037.14 151.339C1038.14 152.887 1039.92 153.661 1042.46 153.661C1045.36 153.661 1047.45 152.812 1048.75 151.114C1050.05 149.367 1050.7 146.521 1050.7 142.577V122.281H1061.33V161ZM1077.64 148.418C1077.64 149.567 1077.87 150.565 1078.32 151.414C1078.82 152.213 1079.44 152.887 1080.19 153.436C1080.94 153.935 1081.79 154.31 1082.74 154.559C1083.73 154.809 1084.76 154.934 1085.81 154.934C1086.56 154.934 1087.33 154.859 1088.13 154.709C1088.98 154.509 1089.73 154.235 1090.38 153.885C1091.07 153.486 1091.65 152.987 1092.1 152.387C1092.55 151.738 1092.77 150.94 1092.77 149.991C1092.77 148.393 1091.7 147.195 1089.55 146.396C1087.45 145.597 1084.51 144.798 1080.71 144C1079.17 143.65 1077.64 143.251 1076.15 142.801C1074.7 142.302 1073.4 141.678 1072.25 140.929C1071.1 140.13 1070.18 139.157 1069.48 138.008C1068.78 136.81 1068.43 135.362 1068.43 133.665C1068.43 131.168 1068.91 129.121 1069.85 127.523C1070.85 125.926 1072.15 124.678 1073.75 123.779C1075.35 122.83 1077.14 122.181 1079.14 121.832C1081.14 121.432 1083.19 121.233 1085.28 121.233C1087.38 121.233 1089.4 121.432 1091.35 121.832C1093.35 122.231 1095.12 122.905 1096.67 123.854C1098.21 124.802 1099.49 126.076 1100.49 127.673C1101.53 129.221 1102.16 131.193 1102.36 133.59H1092.25C1092.1 131.543 1091.32 130.17 1089.93 129.471C1088.53 128.722 1086.88 128.347 1084.98 128.347C1084.38 128.347 1083.73 128.397 1083.04 128.497C1082.34 128.547 1081.69 128.697 1081.09 128.946C1080.54 129.196 1080.07 129.57 1079.67 130.07C1079.27 130.519 1079.07 131.143 1079.07 131.942C1079.07 132.891 1079.42 133.665 1080.12 134.264C1080.81 134.863 1081.71 135.362 1082.81 135.761C1083.96 136.111 1085.26 136.436 1086.71 136.735C1088.15 137.035 1089.63 137.359 1091.12 137.709C1092.67 138.058 1094.17 138.483 1095.62 138.982C1097.12 139.481 1098.44 140.155 1099.59 141.004C1100.74 141.803 1101.66 142.826 1102.36 144.074C1103.06 145.273 1103.41 146.771 1103.41 148.568C1103.41 151.114 1102.88 153.261 1101.83 155.009C1100.84 156.706 1099.51 158.079 1097.86 159.128C1096.22 160.176 1094.32 160.9 1092.17 161.3C1090.08 161.749 1087.93 161.974 1085.73 161.974C1083.49 161.974 1081.29 161.749 1079.14 161.3C1076.99 160.85 1075.07 160.101 1073.37 159.053C1071.73 158.004 1070.35 156.631 1069.26 154.934C1068.21 153.186 1067.63 151.014 1067.53 148.418H1077.64ZM1123.11 122.281H1130.9V129.396H1123.11V148.568C1123.11 150.365 1123.41 151.564 1124.01 152.163C1124.61 152.762 1125.81 153.061 1127.6 153.061C1128.2 153.061 1128.78 153.037 1129.33 152.987C1129.88 152.937 1130.4 152.862 1130.9 152.762V161C1130 161.15 1129 161.25 1127.9 161.3C1126.81 161.349 1125.73 161.374 1124.68 161.374C1123.04 161.374 1121.46 161.25 1119.97 161C1118.52 160.8 1117.22 160.376 1116.07 159.727C1114.97 159.078 1114.1 158.154 1113.45 156.956C1112.8 155.758 1112.48 154.185 1112.48 152.238V129.396H1106.04V122.281H1112.48V110.673H1123.11V122.281ZM1135.51 134.189C1135.66 131.692 1136.28 129.62 1137.38 127.973C1138.48 126.325 1139.88 125.002 1141.58 124.004C1143.27 123.005 1145.17 122.306 1147.27 121.907C1149.42 121.457 1151.56 121.233 1153.71 121.233C1155.66 121.233 1157.63 121.382 1159.63 121.682C1161.62 121.931 1163.44 122.456 1165.09 123.255C1166.74 124.053 1168.09 125.177 1169.14 126.625C1170.19 128.023 1170.71 129.895 1170.71 132.242V152.387C1170.71 154.135 1170.81 155.808 1171.01 157.405C1171.21 159.003 1171.56 160.201 1172.06 161H1161.27C1161.07 160.401 1160.9 159.802 1160.75 159.203C1160.65 158.554 1160.57 157.904 1160.52 157.255C1158.83 159.003 1156.83 160.226 1154.53 160.925C1152.24 161.624 1149.89 161.974 1147.49 161.974C1145.65 161.974 1143.92 161.749 1142.33 161.3C1140.73 160.85 1139.33 160.151 1138.13 159.203C1136.93 158.254 1135.98 157.056 1135.29 155.608C1134.64 154.16 1134.31 152.437 1134.31 150.44C1134.31 148.243 1134.69 146.446 1135.44 145.048C1136.23 143.6 1137.23 142.452 1138.43 141.603C1139.68 140.754 1141.08 140.13 1142.63 139.731C1144.22 139.281 1145.82 138.932 1147.42 138.682C1149.02 138.433 1150.59 138.233 1152.14 138.083C1153.68 137.933 1155.06 137.709 1156.26 137.409C1157.45 137.11 1158.4 136.685 1159.1 136.136C1159.8 135.537 1160.12 134.688 1160.07 133.59C1160.07 132.441 1159.88 131.543 1159.48 130.894C1159.13 130.195 1158.63 129.67 1157.98 129.321C1157.38 128.921 1156.65 128.672 1155.81 128.572C1155.01 128.422 1154.13 128.347 1153.18 128.347C1151.09 128.347 1149.44 128.797 1148.24 129.695C1147.04 130.594 1146.34 132.092 1146.14 134.189H1135.51ZM1160.07 142.052C1159.63 142.452 1159.05 142.776 1158.35 143.026C1157.7 143.226 1156.98 143.4 1156.18 143.55C1155.43 143.7 1154.63 143.825 1153.78 143.925C1152.94 144.025 1152.09 144.149 1151.24 144.299C1150.44 144.449 1149.64 144.649 1148.84 144.898C1148.09 145.148 1147.42 145.497 1146.82 145.947C1146.27 146.346 1145.82 146.87 1145.47 147.519C1145.12 148.169 1144.95 148.992 1144.95 149.991C1144.95 150.94 1145.12 151.738 1145.47 152.387C1145.82 153.037 1146.29 153.561 1146.89 153.96C1147.49 154.31 1148.19 154.559 1148.99 154.709C1149.79 154.859 1150.61 154.934 1151.46 154.934C1153.56 154.934 1155.18 154.584 1156.33 153.885C1157.48 153.186 1158.33 152.362 1158.88 151.414C1159.43 150.415 1159.75 149.417 1159.85 148.418C1160 147.42 1160.07 146.621 1160.07 146.022V142.052ZM1189.9 116.29H1179.26V107.527H1189.9V116.29ZM1179.26 122.281H1189.9V161H1179.26V122.281ZM1198.27 122.281H1208.38V127.673H1208.61C1209.96 125.426 1211.7 123.804 1213.85 122.805C1216 121.757 1218.19 121.233 1220.44 121.233C1223.29 121.233 1225.61 121.632 1227.4 122.431C1229.25 123.18 1230.7 124.253 1231.75 125.651C1232.8 126.999 1233.52 128.672 1233.92 130.669C1234.37 132.616 1234.59 134.788 1234.59 137.184V161H1223.96V139.132C1223.96 135.936 1223.46 133.565 1222.46 132.017C1221.46 130.419 1219.69 129.62 1217.14 129.62C1214.25 129.62 1212.15 130.494 1210.85 132.242C1209.56 133.939 1208.91 136.76 1208.91 140.704V161H1198.27V122.281ZM1242.22 134.189C1242.37 131.692 1242.99 129.62 1244.09 127.973C1245.19 126.325 1246.59 125.002 1248.28 124.004C1249.98 123.005 1251.88 122.306 1253.97 121.907C1256.12 121.457 1258.27 121.233 1260.42 121.233C1262.36 121.233 1264.33 121.382 1266.33 121.682C1268.33 121.931 1270.15 122.456 1271.8 123.255C1273.45 124.053 1274.79 125.177 1275.84 126.625C1276.89 128.023 1277.42 129.895 1277.42 132.242V152.387C1277.42 154.135 1277.52 155.808 1277.72 157.405C1277.91 159.003 1278.26 160.201 1278.76 161H1267.98C1267.78 160.401 1267.6 159.802 1267.45 159.203C1267.36 158.554 1267.28 157.904 1267.23 157.255C1265.53 159.003 1263.54 160.226 1261.24 160.925C1258.94 161.624 1256.6 161.974 1254.2 161.974C1252.35 161.974 1250.63 161.749 1249.03 161.3C1247.43 160.85 1246.04 160.151 1244.84 159.203C1243.64 158.254 1242.69 157.056 1241.99 155.608C1241.34 154.16 1241.02 152.437 1241.02 150.44C1241.02 148.243 1241.39 146.446 1242.14 145.048C1242.94 143.6 1243.94 142.452 1245.14 141.603C1246.39 140.754 1247.78 140.13 1249.33 139.731C1250.93 139.281 1252.53 138.932 1254.12 138.682C1255.72 138.433 1257.29 138.233 1258.84 138.083C1260.39 137.933 1261.76 137.709 1262.96 137.409C1264.16 137.11 1265.11 136.685 1265.81 136.136C1266.51 135.537 1266.83 134.688 1266.78 133.59C1266.78 132.441 1266.58 131.543 1266.18 130.894C1265.83 130.195 1265.33 129.67 1264.68 129.321C1264.08 128.921 1263.36 128.672 1262.51 128.572C1261.71 128.422 1260.84 128.347 1259.89 128.347C1257.79 128.347 1256.15 128.797 1254.95 129.695C1253.75 130.594 1253.05 132.092 1252.85 134.189H1242.22ZM1266.78 142.052C1266.33 142.452 1265.76 142.776 1265.06 143.026C1264.41 143.226 1263.69 143.4 1262.89 143.55C1262.14 143.7 1261.34 143.825 1260.49 143.925C1259.64 144.025 1258.79 144.149 1257.94 144.299C1257.14 144.449 1256.35 144.649 1255.55 144.898C1254.8 145.148 1254.12 145.497 1253.53 145.947C1252.98 146.346 1252.53 146.87 1252.18 147.519C1251.83 148.169 1251.65 148.992 1251.65 149.991C1251.65 150.94 1251.83 151.738 1252.18 152.387C1252.53 153.037 1253 153.561 1253.6 153.96C1254.2 154.31 1254.9 154.559 1255.7 154.709C1256.5 154.859 1257.32 154.934 1258.17 154.934C1260.27 154.934 1261.89 154.584 1263.04 153.885C1264.18 153.186 1265.03 152.362 1265.58 151.414C1266.13 150.415 1266.46 149.417 1266.56 148.418C1266.71 147.42 1266.78 146.621 1266.78 146.022V142.052ZM1314.05 141.678C1314.05 140.03 1313.88 138.458 1313.53 136.96C1313.18 135.462 1312.63 134.139 1311.88 132.991C1311.13 131.842 1310.18 130.943 1309.04 130.294C1307.94 129.595 1306.59 129.246 1304.99 129.246C1303.44 129.246 1302.1 129.595 1300.95 130.294C1299.8 130.943 1298.85 131.842 1298.1 132.991C1297.35 134.139 1296.8 135.462 1296.45 136.96C1296.1 138.458 1295.93 140.03 1295.93 141.678C1295.93 143.276 1296.1 144.823 1296.45 146.321C1296.8 147.819 1297.35 149.142 1298.1 150.29C1298.85 151.439 1299.8 152.362 1300.95 153.061C1302.1 153.711 1303.44 154.035 1304.99 154.035C1306.59 154.035 1307.94 153.711 1309.04 153.061C1310.18 152.362 1311.13 151.439 1311.88 150.29C1312.63 149.142 1313.18 147.819 1313.53 146.321C1313.88 144.823 1314.05 143.276 1314.05 141.678ZM1285.67 107.527H1296.3V126.999H1296.45C1297.75 125.002 1299.5 123.554 1301.7 122.655C1303.94 121.707 1306.27 121.233 1308.66 121.233C1310.61 121.233 1312.53 121.632 1314.43 122.431C1316.33 123.23 1318.02 124.453 1319.52 126.1C1321.07 127.748 1322.32 129.87 1323.27 132.466C1324.21 135.013 1324.69 138.058 1324.69 141.603C1324.69 145.148 1324.21 148.218 1323.27 150.815C1322.32 153.361 1321.07 155.458 1319.52 157.106C1318.02 158.753 1316.33 159.976 1314.43 160.775C1312.53 161.574 1310.61 161.974 1308.66 161.974C1305.82 161.974 1303.27 161.524 1301.02 160.626C1298.78 159.727 1297.08 158.204 1295.93 156.057H1295.78V161H1285.67V107.527ZM1342.39 116.29H1331.75V107.527H1342.39V116.29ZM1331.75 122.281H1342.39V161H1331.75V122.281ZM1351.06 107.527H1361.7V161H1351.06V107.527ZM1381 116.29H1370.37V107.527H1381V116.29ZM1370.37 122.281H1381V161H1370.37V122.281ZM1402.86 122.281H1410.65V129.396H1402.86V148.568C1402.86 150.365 1403.16 151.564 1403.76 152.163C1404.36 152.762 1405.55 153.061 1407.35 153.061C1407.95 153.061 1408.52 153.037 1409.07 152.987C1409.62 152.937 1410.15 152.862 1410.65 152.762V161C1409.75 161.15 1408.75 161.25 1407.65 161.3C1406.55 161.349 1405.48 161.374 1404.43 161.374C1402.78 161.374 1401.21 161.25 1399.71 161C1398.26 160.8 1396.97 160.376 1395.82 159.727C1394.72 159.078 1393.85 158.154 1393.2 156.956C1392.55 155.758 1392.22 154.185 1392.22 152.238V129.396H1385.78V122.281H1392.22V110.673H1402.86V122.281ZM1434.8 165.793C1433.66 168.939 1432.06 171.185 1430.01 172.533C1427.96 173.881 1425.12 174.555 1421.47 174.555C1420.37 174.555 1419.28 174.505 1418.18 174.406C1417.13 174.356 1416.06 174.281 1414.96 174.181V165.419C1415.96 165.518 1416.98 165.618 1418.03 165.718C1419.08 165.818 1420.13 165.843 1421.17 165.793C1422.57 165.643 1423.6 165.094 1424.24 164.145C1424.94 163.197 1425.29 162.148 1425.29 161C1425.29 160.151 1425.14 159.352 1424.84 158.603L1411.29 122.281H1422.6L1431.36 148.793H1431.51L1439.97 122.281H1450.98L1434.8 165.793Z" fill="#85C45C"/>
<path d="M383.196 202.084H386.753V228.82H383.196V202.084ZM399.814 202.084H403.596L417.675 223.765H417.75V202.084H421.12V228.82H417.226L403.259 207.364H403.184V228.82H399.814V202.084ZM437.547 225.825H443.463C443.863 225.825 444.362 225.8 444.961 225.75C445.56 225.675 446.197 225.525 446.871 225.3C447.545 225.051 448.207 224.701 448.856 224.252C449.53 223.803 450.129 223.191 450.653 222.417C451.177 221.643 451.602 220.682 451.926 219.534C452.276 218.36 452.45 216.95 452.45 215.302C452.45 213.705 452.288 212.282 451.964 211.034C451.664 209.76 451.152 208.687 450.428 207.813C449.729 206.914 448.818 206.24 447.695 205.791C446.571 205.317 445.186 205.08 443.538 205.08H437.547V225.825ZM433.99 202.084H443.164C447.283 202.084 450.453 203.132 452.675 205.229C454.897 207.326 456.008 210.522 456.008 214.816C456.008 217.062 455.758 219.059 455.259 220.807C454.76 222.529 453.986 223.99 452.937 225.188C451.889 226.361 450.553 227.26 448.931 227.884C447.308 228.508 445.386 228.82 443.164 228.82H433.99V202.084ZM467.62 202.084H471.177V228.82H467.62V202.084ZM488.881 217.774H497.943L493.487 205.304H493.412L488.881 217.774ZM491.54 202.084H495.472L505.919 228.82H501.987L499.066 220.769H487.758L484.762 228.82H481.13L491.54 202.084ZM515.634 202.084H519.416L533.496 223.765H533.57V202.084H536.941V228.82H533.046L519.079 207.364H519.004V228.82H515.634V202.084ZM567.496 202.084H571.054V228.82H567.496V202.084ZM584.114 202.084H587.897L601.976 223.765H602.051V202.084H605.421V228.82H601.527L587.559 207.364H587.485V228.82H584.114V202.084ZM633.756 209.91C633.556 207.988 632.857 206.602 631.659 205.754C630.485 204.88 628.975 204.443 627.128 204.443C626.379 204.443 625.642 204.518 624.918 204.668C624.194 204.818 623.545 205.067 622.971 205.417C622.422 205.766 621.973 206.24 621.623 206.84C621.299 207.414 621.136 208.138 621.136 209.011C621.136 209.835 621.374 210.509 621.848 211.034C622.347 211.533 622.996 211.945 623.795 212.269C624.619 212.594 625.543 212.868 626.566 213.093C627.59 213.293 628.626 213.517 629.674 213.767C630.748 214.017 631.796 214.316 632.82 214.666C633.843 214.99 634.754 215.44 635.553 216.014C636.377 216.588 637.026 217.312 637.5 218.186C638 219.059 638.249 220.158 638.249 221.481C638.249 222.904 637.925 224.127 637.276 225.151C636.651 226.149 635.84 226.973 634.842 227.622C633.843 228.246 632.72 228.695 631.471 228.97C630.248 229.27 629.025 229.419 627.802 229.419C626.304 229.419 624.881 229.232 623.533 228.858C622.21 228.483 621.037 227.922 620.013 227.173C619.014 226.399 618.216 225.425 617.617 224.252C617.042 223.054 616.755 221.643 616.755 220.021H620.125C620.125 221.144 620.338 222.118 620.762 222.941C621.211 223.74 621.785 224.402 622.484 224.926C623.208 225.45 624.045 225.837 624.993 226.087C625.942 226.336 626.916 226.461 627.914 226.461C628.713 226.461 629.512 226.386 630.311 226.237C631.134 226.087 631.871 225.837 632.52 225.488C633.169 225.113 633.693 224.614 634.093 223.99C634.492 223.366 634.692 222.567 634.692 221.593C634.692 220.67 634.442 219.921 633.943 219.347C633.469 218.772 632.82 218.311 631.996 217.961C631.197 217.587 630.286 217.287 629.262 217.062C628.239 216.838 627.19 216.613 626.117 216.388C625.068 216.139 624.032 215.864 623.009 215.564C621.985 215.24 621.062 214.828 620.238 214.329C619.439 213.805 618.79 213.143 618.291 212.344C617.816 211.52 617.579 210.497 617.579 209.274C617.579 207.926 617.854 206.765 618.403 205.791C618.952 204.793 619.676 203.981 620.575 203.357C621.498 202.708 622.534 202.234 623.683 201.934C624.856 201.61 626.054 201.447 627.278 201.447C628.651 201.447 629.924 201.61 631.097 201.934C632.27 202.259 633.294 202.77 634.168 203.469C635.066 204.168 635.765 205.055 636.265 206.128C636.789 207.177 637.076 208.437 637.126 209.91H633.756ZM655.753 205.08H646.841V202.084H668.222V205.08H659.31V228.82H655.753V205.08ZM678.453 202.084H682.01V228.82H678.453V202.084ZM701.175 205.08H692.263V202.084H713.644V205.08H704.732V228.82H701.175V205.08ZM745.07 219.159C745.07 222.579 744.158 225.151 742.336 226.873C740.514 228.571 737.917 229.419 734.547 229.419C731.102 229.419 728.406 228.608 726.459 226.985C724.537 225.338 723.576 222.729 723.576 219.159V202.084H727.133V219.159C727.133 221.556 727.77 223.378 729.043 224.626C730.316 225.85 732.151 226.461 734.547 226.461C736.819 226.461 738.542 225.85 739.715 224.626C740.913 223.378 741.512 221.556 741.512 219.159V202.084H745.07V219.159ZM763.93 205.08H755.018V202.084H776.4V205.08H767.488V228.82H763.93V205.08ZM786.481 202.084H804.942V205.08H790.038V213.58H803.931V216.576H790.038V225.825H805.054V228.82H786.481V202.084ZM836.083 215.452C836.083 216.8 836.258 218.136 836.608 219.459C836.957 220.757 837.506 221.93 838.255 222.979C839.004 224.027 839.965 224.876 841.139 225.525C842.312 226.149 843.71 226.461 845.333 226.461C846.955 226.461 848.353 226.149 849.527 225.525C850.7 224.876 851.661 224.027 852.41 222.979C853.159 221.93 853.708 220.757 854.057 219.459C854.407 218.136 854.582 216.8 854.582 215.452C854.582 214.104 854.407 212.781 854.057 211.483C853.708 210.16 853.159 208.974 852.41 207.926C851.661 206.877 850.7 206.041 849.527 205.417C848.353 204.768 846.955 204.443 845.333 204.443C843.71 204.443 842.312 204.768 841.139 205.417C839.965 206.041 839.004 206.877 838.255 207.926C837.506 208.974 836.957 210.16 836.608 211.483C836.258 212.781 836.083 214.104 836.083 215.452ZM832.526 215.452C832.526 213.63 832.788 211.882 833.312 210.21C833.862 208.512 834.673 207.014 835.746 205.716C836.82 204.418 838.155 203.382 839.753 202.608C841.351 201.834 843.211 201.447 845.333 201.447C847.455 201.447 849.314 201.834 850.912 202.608C852.51 203.382 853.845 204.418 854.919 205.716C855.992 207.014 856.791 208.512 857.315 210.21C857.864 211.882 858.139 213.63 858.139 215.452C858.139 217.275 857.864 219.034 857.315 220.732C856.791 222.405 855.992 223.89 854.919 225.188C853.845 226.486 852.51 227.522 850.912 228.296C849.314 229.045 847.455 229.419 845.333 229.419C843.211 229.419 841.351 229.045 839.753 228.296C838.155 227.522 836.82 226.486 835.746 225.188C834.673 223.89 833.862 222.405 833.312 220.732C832.788 219.034 832.526 217.275 832.526 215.452ZM869.589 202.084H887.151V205.08H873.146V213.58H885.428V216.576H873.146V228.82H869.589V202.084ZM921.808 205.08H912.896V202.084H934.278V205.08H925.366V228.82H921.808V205.08ZM944.359 202.084H962.82V205.08H947.916V213.58H961.809V216.576H947.916V225.825H962.932V228.82H944.359V202.084ZM993.163 210.135C992.764 208.238 991.878 206.815 990.505 205.866C989.157 204.917 987.546 204.443 985.674 204.443C984.076 204.443 982.703 204.743 981.555 205.342C980.432 205.941 979.495 206.752 978.747 207.776C978.023 208.774 977.486 209.923 977.136 211.221C976.787 212.519 976.612 213.867 976.612 215.265C976.612 216.788 976.787 218.236 977.136 219.609C977.486 220.957 978.023 222.142 978.747 223.166C979.495 224.165 980.444 224.963 981.592 225.563C982.741 226.162 984.114 226.461 985.712 226.461C986.885 226.461 987.921 226.274 988.82 225.9C989.743 225.5 990.53 224.963 991.179 224.289C991.853 223.59 992.377 222.767 992.751 221.818C993.126 220.869 993.35 219.846 993.425 218.747H996.983C996.633 222.118 995.472 224.739 993.5 226.611C991.528 228.483 988.832 229.419 985.412 229.419C983.34 229.419 981.53 229.07 979.982 228.371C978.435 227.647 977.149 226.661 976.125 225.413C975.102 224.165 974.328 222.692 973.804 220.994C973.304 219.297 973.055 217.474 973.055 215.527C973.055 213.58 973.329 211.757 973.879 210.06C974.428 208.337 975.227 206.84 976.275 205.566C977.349 204.293 978.672 203.295 980.244 202.571C981.842 201.822 983.664 201.447 985.712 201.447C987.109 201.447 988.433 201.635 989.681 202.009C990.929 202.384 992.04 202.933 993.013 203.657C993.987 204.381 994.798 205.292 995.447 206.39C996.096 207.464 996.521 208.712 996.721 210.135H993.163ZM1008.5 202.084H1012.06V213.58H1026.14V202.084H1029.7V228.82H1026.14V216.576H1012.06V228.82H1008.5V202.084ZM1042.61 202.084H1046.39L1060.47 223.765H1060.54V202.084H1063.91V228.82H1060.02L1046.05 207.364H1045.98V228.82H1042.61V202.084ZM1078.84 215.452C1078.84 216.8 1079.02 218.136 1079.37 219.459C1079.71 220.757 1080.26 221.93 1081.01 222.979C1081.76 224.027 1082.72 224.876 1083.9 225.525C1085.07 226.149 1086.47 226.461 1088.09 226.461C1089.71 226.461 1091.11 226.149 1092.28 225.525C1093.46 224.876 1094.42 224.027 1095.17 222.979C1095.92 221.93 1096.47 220.757 1096.81 219.459C1097.16 218.136 1097.34 216.8 1097.34 215.452C1097.34 214.104 1097.16 212.781 1096.81 211.483C1096.47 210.16 1095.92 208.974 1095.17 207.926C1094.42 206.877 1093.46 206.041 1092.28 205.417C1091.11 204.768 1089.71 204.443 1088.09 204.443C1086.47 204.443 1085.07 204.768 1083.9 205.417C1082.72 206.041 1081.76 206.877 1081.01 207.926C1080.26 208.974 1079.71 210.16 1079.37 211.483C1079.02 212.781 1078.84 214.104 1078.84 215.452ZM1075.28 215.452C1075.28 213.63 1075.55 211.882 1076.07 210.21C1076.62 208.512 1077.43 207.014 1078.5 205.716C1079.58 204.418 1080.91 203.382 1082.51 202.608C1084.11 201.834 1085.97 201.447 1088.09 201.447C1090.21 201.447 1092.07 201.834 1093.67 202.608C1095.27 203.382 1096.6 204.418 1097.68 205.716C1098.75 207.014 1099.55 208.512 1100.07 210.21C1100.62 211.882 1100.9 213.63 1100.9 215.452C1100.9 217.275 1100.62 219.034 1100.07 220.732C1099.55 222.405 1098.75 223.89 1097.68 225.188C1096.6 226.486 1095.27 227.522 1093.67 228.296C1092.07 229.045 1090.21 229.419 1088.09 229.419C1085.97 229.419 1084.11 229.045 1082.51 228.296C1080.91 227.522 1079.58 226.486 1078.5 225.188C1077.43 223.89 1076.62 222.405 1076.07 220.732C1075.55 219.034 1075.28 217.275 1075.28 215.452ZM1112.35 202.084H1115.9V225.825H1130.06V228.82H1112.35V202.084ZM1142.33 215.452C1142.33 216.8 1142.5 218.136 1142.85 219.459C1143.2 220.757 1143.75 221.93 1144.5 222.979C1145.25 224.027 1146.21 224.876 1147.38 225.525C1148.56 226.149 1149.95 226.461 1151.58 226.461C1153.2 226.461 1154.6 226.149 1155.77 225.525C1156.94 224.876 1157.91 224.027 1158.65 222.979C1159.4 221.93 1159.95 220.757 1160.3 219.459C1160.65 218.136 1160.83 216.8 1160.83 215.452C1160.83 214.104 1160.65 212.781 1160.3 211.483C1159.95 210.16 1159.4 208.974 1158.65 207.926C1157.91 206.877 1156.94 206.041 1155.77 205.417C1154.6 204.768 1153.2 204.443 1151.58 204.443C1149.95 204.443 1148.56 204.768 1147.38 205.417C1146.21 206.041 1145.25 206.877 1144.5 207.926C1143.75 208.974 1143.2 210.16 1142.85 211.483C1142.5 212.781 1142.33 214.104 1142.33 215.452ZM1138.77 215.452C1138.77 213.63 1139.03 211.882 1139.56 210.21C1140.11 208.512 1140.92 207.014 1141.99 205.716C1143.06 204.418 1144.4 203.382 1146 202.608C1147.59 201.834 1149.45 201.447 1151.58 201.447C1153.7 201.447 1155.56 201.834 1157.16 202.608C1158.75 203.382 1160.09 204.418 1161.16 205.716C1162.24 207.014 1163.04 208.512 1163.56 210.21C1164.11 211.882 1164.38 213.63 1164.38 215.452C1164.38 217.275 1164.11 219.034 1163.56 220.732C1163.04 222.405 1162.24 223.89 1161.16 225.188C1160.09 226.486 1158.75 227.522 1157.16 228.296C1155.56 229.045 1153.7 229.419 1151.58 229.419C1149.45 229.419 1147.59 229.045 1146 228.296C1144.4 227.522 1143.06 226.486 1141.99 225.188C1140.92 223.89 1140.11 222.405 1139.56 220.732C1139.03 219.034 1138.77 217.275 1138.77 215.452ZM1195.83 225.488C1194.78 226.886 1193.48 227.897 1191.93 228.521C1190.39 229.12 1188.83 229.419 1187.25 229.419C1185.26 229.419 1183.47 229.057 1181.9 228.334C1180.33 227.585 1178.99 226.586 1177.89 225.338C1176.79 224.09 1175.96 222.654 1175.38 221.032C1174.81 219.409 1174.52 217.724 1174.52 215.976C1174.52 214.029 1174.78 212.182 1175.31 210.434C1175.86 208.662 1176.66 207.114 1177.71 205.791C1178.78 204.468 1180.1 203.42 1181.67 202.646C1183.27 201.847 1185.13 201.447 1187.25 201.447C1188.7 201.447 1190.06 201.622 1191.34 201.972C1192.63 202.296 1193.78 202.82 1194.78 203.544C1195.8 204.268 1196.65 205.192 1197.33 206.315C1198.03 207.414 1198.5 208.749 1198.75 210.322H1195.19C1195.02 209.299 1194.69 208.425 1194.22 207.701C1193.74 206.952 1193.16 206.34 1192.46 205.866C1191.76 205.392 1190.96 205.042 1190.06 204.818C1189.19 204.568 1188.25 204.443 1187.25 204.443C1185.63 204.443 1184.23 204.768 1183.06 205.417C1181.91 206.066 1180.96 206.927 1180.21 208C1179.49 209.049 1178.95 210.26 1178.6 211.633C1178.25 212.981 1178.08 214.366 1178.08 215.789C1178.08 217.187 1178.28 218.535 1178.68 219.833C1179.08 221.106 1179.66 222.242 1180.44 223.241C1181.21 224.214 1182.16 225.001 1183.28 225.6C1184.43 226.174 1185.76 226.461 1187.25 226.461C1188.65 226.461 1189.89 226.237 1190.96 225.787C1192.03 225.338 1192.93 224.726 1193.66 223.952C1194.41 223.154 1194.97 222.23 1195.34 221.181C1195.72 220.108 1195.88 218.96 1195.83 217.736H1187.29V214.741H1199.01V228.82H1196.77L1195.83 225.488ZM1222.41 217.886V228.82H1218.85V217.886L1208.52 202.084H1212.75L1220.76 214.816L1228.59 202.084H1232.63L1222.41 217.886ZM1260.29 202.084H1263.85V215.415L1277.41 202.084H1282.01L1270.74 212.868L1282.46 228.82H1277.97L1268.31 215.302L1263.85 219.459V228.82H1260.29V202.084ZM1296.99 217.774H1306.05L1301.6 205.304H1301.52L1296.99 217.774ZM1299.65 202.084H1303.58L1314.03 228.82H1310.1L1307.18 220.769H1295.87L1292.87 228.82H1289.24L1299.65 202.084ZM1323.74 202.084H1327.53L1341.6 223.765H1341.68V202.084H1345.05V228.82H1341.16L1327.19 207.364H1327.11V228.82H1323.74V202.084ZM1361.48 214.89H1368.44C1370.46 214.915 1371.94 214.504 1372.86 213.655C1373.81 212.806 1374.28 211.583 1374.28 209.985C1374.28 208.387 1373.81 207.177 1372.86 206.353C1371.94 205.504 1370.46 205.08 1368.44 205.08H1361.48V214.89ZM1357.92 202.084H1369.64C1372.34 202.084 1374.37 202.783 1375.74 204.181C1377.14 205.554 1377.84 207.489 1377.84 209.985C1377.84 212.481 1377.14 214.429 1375.74 215.827C1374.37 217.225 1372.34 217.911 1369.64 217.886H1361.48V228.82H1357.92V202.084ZM1410.66 219.159C1410.66 222.579 1409.75 225.151 1407.93 226.873C1406.1 228.571 1403.51 229.419 1400.14 229.419C1396.69 229.419 1394 228.608 1392.05 226.985C1390.13 225.338 1389.17 222.729 1389.17 219.159V202.084H1392.72V219.159C1392.72 221.556 1393.36 223.378 1394.63 224.626C1395.91 225.85 1397.74 226.461 1400.14 226.461C1402.41 226.461 1404.13 225.85 1405.3 224.626C1406.5 223.378 1407.1 221.556 1407.1 219.159V202.084H1410.66V219.159ZM1423.45 202.084H1436.04C1438.58 202.084 1440.57 202.708 1441.99 203.956C1443.44 205.204 1444.16 206.914 1444.16 209.086C1444.16 210.709 1443.79 212.132 1443.04 213.355C1442.31 214.578 1441.14 215.415 1439.52 215.864V215.939C1440.29 216.089 1440.92 216.338 1441.39 216.688C1441.89 217.037 1442.28 217.462 1442.55 217.961C1442.85 218.435 1443.06 218.972 1443.19 219.571C1443.34 220.17 1443.45 220.794 1443.52 221.443C1443.57 222.093 1443.61 222.754 1443.64 223.428C1443.66 224.102 1443.72 224.764 1443.82 225.413C1443.92 226.062 1444.06 226.686 1444.24 227.285C1444.44 227.859 1444.72 228.371 1445.1 228.82H1441.13C1440.88 228.546 1440.7 228.171 1440.6 227.697C1440.53 227.223 1440.48 226.698 1440.45 226.124C1440.43 225.525 1440.4 224.888 1440.38 224.214C1440.35 223.54 1440.28 222.879 1440.15 222.23C1440.05 221.581 1439.93 220.969 1439.78 220.395C1439.63 219.796 1439.39 219.284 1439.07 218.86C1438.74 218.41 1438.32 218.061 1437.8 217.811C1437.27 217.537 1436.57 217.399 1435.7 217.399H1427.01V228.82H1423.45V202.084ZM1434.43 214.404C1435.25 214.404 1436.04 214.341 1436.78 214.216C1437.53 214.092 1438.18 213.854 1438.73 213.505C1439.31 213.131 1439.76 212.644 1440.08 212.045C1440.43 211.42 1440.6 210.622 1440.6 209.648C1440.6 208.3 1440.23 207.202 1439.48 206.353C1438.73 205.504 1437.52 205.08 1435.85 205.08H1427.01V214.404H1434.43Z" fill="white"/>
<circle cx="170.5" cy="170.5" r="136" stroke="white" stroke-width="3"/>
<circle cx="170" cy="170" r="166.5" stroke="white" stroke-width="3"/>
<circle cx="19.2851" cy="147.171" r="3.04491" fill="white"/>
<circle cx="318.686" cy="147.171" r="3.04491" fill="white"/>
<circle cx="170" cy="170" r="124" stroke="white" stroke-width="8"/>
<path d="M233.57 232.539C217.205 231.323 201.904 223.966 190.736 211.942C179.567 199.918 173.357 184.117 173.349 167.707C173.342 151.296 179.538 135.49 190.696 123.456C201.853 111.422 217.147 104.051 233.511 102.82" stroke="white" stroke-width="4" stroke-linecap="round"/>
<path d="M233.559 102.903C232.32 119.265 224.943 138.496 212.906 149.648C200.868 160.799 185.061 166.989 168.652 166.976C152.243 166.963 136.446 160.748 124.426 149.578C112.407 138.407 105.054 119.164 103.841 102.801" stroke="white" stroke-width="4" stroke-linecap="round"/>
<path d="M103.973 232.531C120.334 231.283 135.619 223.898 146.764 211.854C157.91 199.811 164.091 184.001 164.069 167.592C164.047 151.183 157.824 135.389 146.647 123.375C135.47 111.362 120.165 104.017 103.801 102.813" stroke="white" stroke-width="4" stroke-linecap="round"/>
<path d="M233.564 232.465C232.329 216.103 224.955 196.87 212.92 185.716C200.885 174.562 185.079 168.369 168.67 168.379C152.261 168.388 136.462 174.599 124.44 185.767C112.419 196.935 105.062 216.176 103.846 232.54" stroke="white" stroke-width="4" stroke-linecap="round"/>
<circle cx="113.098" cy="167.673" r="9.85467" transform="rotate(45 113.098 167.673)" fill="#85C45C"/>
<circle cx="223.467" cy="167.673" r="9.85467" transform="rotate(45 223.467 167.673)" fill="#85C45C"/>
<path d="M105.563 112.347C121.45 113.55 135.896 119.55 146.816 130.011C157.736 140.473 163.873 154.141 163.996 168.275C164.12 182.41 158.221 195.967 147.482 206.228C136.742 216.489 121.957 222.697 106.089 223.606" stroke="white" stroke-width="2" stroke-linecap="round"/>
<path d="M107.549 120.232C123.028 121.403 136.034 124.555 146.736 133.923C157.439 143.291 163.504 155.477 163.716 168.04C163.927 180.602 158.27 192.611 147.879 201.661C137.487 210.71 122.979 215.117 107.532 215.822" stroke="white" stroke-width="2" stroke-linecap="round"/>
<path d="M110.503 128.115C124.801 129.198 137.381 131.264 147.319 139.223C157.257 147.183 162.931 157.489 163.204 168.076C163.477 178.663 158.328 188.748 148.789 196.31C139.251 203.872 125.731 207.439 111.474 207.938" stroke="white" stroke-width="2" stroke-linecap="square"/>
<path d="M231.599 112.347C215.712 113.55 201.267 119.55 190.346 130.011C179.426 140.473 173.289 154.141 173.166 168.275C173.042 182.41 178.941 195.967 189.681 206.228C200.42 216.489 215.205 222.697 231.074 223.606" stroke="white" stroke-width="2" stroke-linecap="round"/>
<path d="M229.613 120.232C214.134 121.403 201.128 124.555 190.426 133.923C179.723 143.291 173.658 155.477 173.447 168.04C173.235 180.602 178.892 192.611 189.284 201.661C199.675 210.71 214.183 215.117 229.63 215.822" stroke="white" stroke-width="2" stroke-linecap="round"/>
<path d="M226.657 128.115C212.36 129.198 199.779 131.264 189.841 139.223C179.903 147.183 174.229 157.489 173.956 168.076C173.684 178.663 178.833 188.748 188.371 196.31C197.909 203.872 211.429 207.439 225.686 207.938" stroke="white" stroke-width="2" stroke-linecap="square"/>
<path d="M20.1127 148.015C19.8358 147.964 19.6146 147.819 19.4491 147.58C19.2836 147.341 19.2261 147.083 19.2766 146.806C19.3271 146.529 19.472 146.308 19.7112 146.142C19.9505 145.977 20.2086 145.919 20.4855 145.97C20.7411 146.016 20.957 146.16 21.1331 146.401C21.3092 146.643 21.373 146.896 21.3245 147.163C21.274 147.44 21.1281 147.666 20.8869 147.842C20.6477 148.008 20.3896 148.065 20.1127 148.015Z" fill="white"/>
<path d="M17.3865 129.764L18.1673 127.337L22.7433 128.81L19.555 123.024L20.5298 119.994L23.5016 125.71L31.7019 123.128L30.7221 126.173L24.6904 127.901L25.6496 129.745L29.2052 130.888L28.4243 133.316L17.3865 129.764Z" fill="white"/>
<path d="M28.3638 115.794C28.8101 115.99 29.2682 116.131 29.7381 116.219C30.2024 116.292 30.653 116.288 31.0901 116.208C31.5272 116.127 31.9301 115.949 32.299 115.673C32.658 115.393 32.9525 114.99 33.1826 114.464C33.4126 113.939 33.5088 113.449 33.4711 112.995C33.4234 112.537 33.2809 112.12 33.0435 111.745C32.8061 111.369 32.5009 111.04 32.1277 110.759C31.749 110.463 31.3365 110.217 30.8902 110.022C30.4241 109.818 29.9489 109.675 29.4648 109.593C28.985 109.501 28.5265 109.496 28.0895 109.576C27.6425 109.652 27.2395 109.831 26.8806 110.111C26.5117 110.387 26.2122 110.787 25.9821 111.313C25.7521 111.839 25.6609 112.33 25.7085 112.789C25.7463 113.242 25.8888 113.659 26.1361 114.039C26.3734 114.415 26.6864 114.753 27.0751 115.053C27.4681 115.343 27.8976 115.59 28.3638 115.794ZM27.3415 118.13C26.548 117.783 25.8662 117.343 25.296 116.809C24.7158 116.272 24.2705 115.669 23.96 115.001C23.6495 114.334 23.4916 113.615 23.4861 112.844C23.485 112.064 23.6624 111.267 24.0184 110.453C24.3787 109.63 24.8437 108.959 25.4135 108.44C25.9833 107.922 26.6187 107.55 27.3199 107.325C28.0211 107.1 28.7659 107.018 29.5544 107.08C30.333 107.137 31.119 107.339 31.9125 107.686C32.6861 108.025 33.358 108.461 33.9282 108.994C34.4886 109.523 34.919 110.119 35.2196 110.782C35.5201 111.446 35.6731 112.163 35.6786 112.933C35.6741 113.7 35.4918 114.494 35.1315 115.317C34.7755 116.131 34.3154 116.804 33.7512 117.337C33.1814 117.856 32.5509 118.23 31.8597 118.459C31.1684 118.688 30.4385 118.776 29.6698 118.724C28.8912 118.667 28.1151 118.469 27.3415 118.13Z" fill="white"/>
<path d="M32.1551 99.1019L30.4733 102.143L28.5974 101.106L33.1947 92.7921L35.0706 93.8295L33.3889 96.8707L41.6599 101.444L40.4261 103.676L32.1551 99.1019Z" fill="white"/>
<path d="M42.7626 90.854L44.4409 88.3622L40.0954 87.1977L40.0773 87.2246L42.7626 90.854ZM36.999 86.6787L38.4596 84.5101L50.4989 87.3908L49.0203 89.5863L46.3887 88.8713L43.9666 92.4677L45.6003 94.6643L44.167 96.7925L36.999 86.6787Z" fill="white"/>
<path d="M43.8847 76.755L45.5071 74.7882L49.2152 77.8469L48.3901 71.293L50.4155 68.8376L51.0652 75.2469L59.6392 75.8775L57.6035 78.3455L51.3604 77.7218L51.5704 79.7896L54.4517 82.1664L52.8293 84.1332L43.8847 76.755Z" fill="white"/>
<path d="M66.4244 63.3468C66.6843 63.6372 66.9569 63.8364 67.2423 63.9442C67.5277 64.0521 67.8128 64.0947 68.0978 64.0722C68.3835 64.0344 68.6723 63.9431 68.964 63.7983C69.2485 63.6454 69.5158 63.457 69.7659 63.2332C69.9354 63.0816 70.1061 62.9071 70.278 62.7096C70.4428 62.5041 70.5738 62.2852 70.671 62.0529C70.7683 61.8206 70.812 61.5854 70.8022 61.3471C70.7852 61.1009 70.6793 60.8688 70.4843 60.651C70.275 60.417 70.0287 60.296 69.7454 60.2879C69.4703 60.2726 69.1684 60.3249 68.8397 60.4446C68.511 60.5644 68.1609 60.7251 67.7893 60.9269C67.4178 61.1286 67.035 61.3259 66.6409 61.5187C66.246 61.7268 65.8447 61.9115 65.4371 62.0729C65.0222 62.2262 64.6107 62.3183 64.2026 62.3494C63.7946 62.3804 63.3911 62.3273 62.9924 62.1902C62.5945 62.0377 62.2187 61.7639 61.8649 61.3685C61.4679 60.9248 61.2177 60.4585 61.1145 59.9698C61.0122 59.4657 61.0168 58.9676 61.1285 58.4755C61.2402 57.9833 61.4427 57.5115 61.7361 57.0601C62.0295 56.6087 62.3698 56.2097 62.7571 55.8632C63.2089 55.4589 63.6875 55.1251 64.1928 54.8618C64.699 54.5832 65.2145 54.4125 65.7393 54.3496C66.2642 54.2868 66.7782 54.3498 67.2814 54.5388C67.7855 54.7124 68.2613 55.0493 68.7089 55.5496L66.8694 57.1956C66.6223 56.9518 66.3745 56.7886 66.1261 56.7058C65.8857 56.6157 65.6456 56.5909 65.4056 56.6313C65.1657 56.6716 64.9269 56.7619 64.6891 56.902C64.4593 57.0349 64.2275 57.2061 63.9935 57.4154C63.8402 57.5526 63.7014 57.7059 63.577 57.8753C63.4526 58.0448 63.3619 58.2276 63.305 58.4238C63.2562 58.6127 63.2456 58.8038 63.2732 58.997C63.3008 59.1903 63.3976 59.3796 63.5637 59.5652C63.7153 59.7346 63.8703 59.8429 64.0287 59.89C64.187 59.9372 64.3987 59.9221 64.6637 59.8448C64.9368 59.7603 65.2784 59.6144 65.6886 59.4072C66.1068 59.1927 66.6476 58.9122 67.3109 58.5657C67.5011 58.4535 67.7771 58.3155 68.1389 58.1516C68.5016 57.9724 68.9071 57.8492 69.3555 57.7821C69.8039 57.715 70.2698 57.7485 70.753 57.8827C71.2371 58.0016 71.6958 58.303 72.1289 58.7871C72.4827 59.1825 72.7345 59.6181 72.8844 60.0942C73.0343 60.5702 73.0679 61.0704 72.9851 61.5948C72.9032 62.104 72.6977 62.6293 72.3686 63.1707C72.0476 63.7049 71.5926 64.2355 71.0036 64.7626C70.5276 65.1885 70.0096 65.5431 69.4495 65.8263C68.9047 66.1105 68.3469 66.2827 67.7762 66.343C67.2135 66.3961 66.6581 66.3193 66.1099 66.1125C65.5617 65.9057 65.0533 65.5325 64.5849 64.9928L66.4244 63.3468Z" fill="white"/>
<path d="M80.0091 47.2441C79.802 47.0333 79.5671 46.8763 79.3043 46.773C79.0352 46.661 78.7545 46.5976 78.4624 46.5827C78.1703 46.5678 77.8774 46.6071 77.5838 46.7004C77.2925 46.7787 77.02 46.9102 76.7662 47.0951C76.3024 47.433 75.9756 47.8117 75.7857 48.2314C75.5895 48.6422 75.5023 49.0741 75.5241 49.527C75.5396 49.9712 75.6395 50.4208 75.8237 50.8759C76.0167 51.3247 76.263 51.7547 76.5627 52.166C76.8495 52.5598 77.1738 52.9129 77.5354 53.2254C77.8994 53.5228 78.2904 53.747 78.7084 53.8978C79.1264 54.0487 79.5643 54.0981 80.0219 54.046C80.4732 53.9851 80.9307 53.7858 81.3945 53.4479C82.0245 52.9889 82.3743 52.4394 82.4438 51.7994C82.522 51.153 82.371 50.4861 81.9908 49.7987L83.9859 48.3452C84.3605 48.9697 84.6106 49.5979 84.7361 50.2298C84.8615 50.8617 84.866 51.4746 84.7495 52.0685C84.633 52.6624 84.3979 53.2222 84.0441 53.7478C83.6903 54.2734 83.2247 54.7466 82.6471 55.1674C81.9296 55.6901 81.1928 56.0393 80.4368 56.2151C79.6831 56.3757 78.9501 56.3807 78.2375 56.23C77.525 56.0794 76.8502 55.7874 76.2131 55.3541C75.5696 54.9121 74.9992 54.3498 74.5019 53.6673C73.9919 52.9673 73.6252 52.2432 73.4017 51.4952C73.1718 50.7384 73.0912 49.9935 73.1599 49.2603C73.2285 48.5272 73.4548 47.8265 73.8387 47.1584C74.2313 46.4839 74.7864 45.8853 75.504 45.3625C76.0202 44.9864 76.5601 44.707 77.1235 44.5242C77.6956 44.3351 78.2663 44.2542 78.8354 44.2816C79.4069 44.2939 79.9638 44.424 80.5061 44.6719C81.0483 44.9198 81.5477 45.2927 82.0042 45.7906L80.0091 47.2441Z" fill="white"/>
<path d="M84.9386 39.0676L87.1449 37.7899L89.3748 41.6405L93.4362 39.2885L91.2063 35.4379L93.4126 34.1602L99.2234 44.1941L97.017 45.4719L94.5104 41.1435L90.4491 43.4955L92.9557 47.8238L90.7493 49.1015L84.9386 39.0676Z" fill="white"/>
<path d="M103.635 35.4253C103.832 35.8707 104.075 36.2842 104.362 36.6658C104.656 37.0332 104.991 37.3347 105.367 37.5702C105.744 37.8058 106.162 37.9462 106.62 37.9917C107.074 38.0272 107.563 37.9286 108.088 37.696C108.613 37.4634 109.014 37.1669 109.292 36.8066C109.566 36.4363 109.743 36.0325 109.821 35.5951C109.899 35.1576 109.896 34.7091 109.81 34.2496C109.731 33.7757 109.592 33.3161 109.394 32.8708C109.188 32.4056 108.934 31.9795 108.632 31.5923C108.34 31.2007 108.005 30.8872 107.629 30.6517C107.247 30.4062 106.83 30.2658 106.376 30.2302C105.917 30.1848 105.426 30.2784 104.901 30.511C104.377 30.7437 103.978 31.0451 103.704 31.4153C103.425 31.7757 103.249 32.1795 103.175 32.6268C103.097 33.0643 103.1 33.5249 103.184 34.0086C103.278 34.4879 103.428 34.9602 103.635 35.4253ZM101.304 36.459C100.953 35.6673 100.747 34.8822 100.686 34.1039C100.62 33.3157 100.698 32.5705 100.92 31.8682C101.141 31.166 101.51 30.5287 102.026 29.9564C102.552 29.3797 103.221 28.9114 104.032 28.5515C104.854 28.1872 105.65 28.0059 106.42 28.0076C107.191 28.0093 107.911 28.1637 108.58 28.4709C109.249 28.7782 109.854 29.2205 110.394 29.7981C110.93 30.3657 111.374 31.0454 111.725 31.8371C112.067 32.6091 112.269 33.3842 112.33 34.1625C112.387 34.9309 112.302 35.6613 112.076 36.3537C111.85 37.046 111.479 37.6783 110.963 38.2506C110.443 38.813 109.772 39.2764 108.951 39.6407C108.139 40.0006 107.345 40.1869 106.569 40.1995C105.799 40.1978 105.081 40.0483 104.416 39.7509C103.751 39.4536 103.153 39.0261 102.621 38.4684C102.085 37.9007 101.646 37.2309 101.304 36.459Z" fill="white"/>
<path d="M118.933 29.0731C119.081 29.5374 119.277 29.975 119.521 30.3859C119.772 30.7831 120.072 31.1195 120.421 31.3948C120.77 31.6702 121.17 31.8556 121.62 31.9509C122.067 32.0359 122.565 31.9915 123.111 31.8177C123.658 31.6439 124.09 31.3932 124.406 31.0655C124.719 30.7275 124.938 30.3453 125.064 29.9191C125.19 29.4929 125.235 29.0467 125.201 28.5806C125.173 28.1008 125.086 27.6288 124.938 27.1645C124.784 26.6796 124.578 26.2282 124.32 25.8102C124.073 25.3891 123.775 25.0408 123.426 24.7654C123.074 24.4797 122.674 24.2944 122.227 24.2093C121.776 24.114 121.277 24.1532 120.731 24.327C120.184 24.5009 119.754 24.7568 119.441 25.0948C119.125 25.4225 118.905 25.8046 118.783 26.2411C118.657 26.6674 118.61 27.1255 118.64 27.6155C118.682 28.1023 118.779 28.5882 118.933 29.0731ZM116.503 29.8454C116.241 29.02 116.122 28.2171 116.147 27.4368C116.168 26.6462 116.327 25.914 116.624 25.2402C116.922 24.5664 117.358 23.9734 117.933 23.461C118.519 22.9453 119.235 22.553 120.081 22.2841C120.938 22.0119 121.749 21.9189 122.514 22.0049C123.28 22.091 123.979 22.3233 124.61 22.702C125.242 23.0806 125.795 23.5865 126.269 24.2197C126.739 24.8426 127.106 25.5668 127.368 26.3922C127.624 27.197 127.739 27.9895 127.715 28.7699C127.687 29.5398 127.523 30.2566 127.222 30.92C126.922 31.5835 126.484 32.1714 125.909 32.6838C125.33 33.1858 124.612 33.573 123.756 33.8451C122.91 34.1141 122.1 34.2123 121.328 34.1398C120.562 34.0538 119.865 33.8266 119.237 33.4583C118.608 33.09 118.06 32.5995 117.593 31.9869C117.122 31.364 116.759 30.6502 116.503 29.8454Z" fill="white"/>
<path d="M131.536 19.2039L134.03 18.6729L135.998 27.9171L141.526 26.7401L141.972 28.8367L133.951 30.5447L131.536 19.2039Z" fill="white"/>
<path d="M156.026 21.0459C156.055 21.5323 156.136 22.0047 156.271 22.4631C156.417 22.9101 156.624 23.3101 156.894 23.6631C157.164 24.0161 157.506 24.2944 157.919 24.4981C158.332 24.6909 158.824 24.7707 159.397 24.7373C159.97 24.7039 160.45 24.5675 160.837 24.328C161.224 24.0777 161.531 23.7616 161.758 23.3797C161.985 22.9977 162.14 22.5766 162.221 22.1164C162.313 21.6447 162.345 21.1657 162.316 20.6793C162.287 20.1713 162.199 19.683 162.052 19.2144C161.916 18.7452 161.713 18.334 161.443 17.9811C161.173 17.6173 160.831 17.3389 160.419 17.1461C160.006 16.9424 159.513 16.8573 158.94 16.8907C158.367 16.9241 157.887 17.0659 157.501 17.3162C157.113 17.5556 156.806 17.8717 156.58 18.2645C156.353 18.6465 156.193 19.0787 156.102 19.5612C156.022 20.043 155.997 20.5379 156.026 21.0459ZM153.481 21.1942C153.43 20.3296 153.514 19.5223 153.73 18.7722C153.946 18.0113 154.281 17.3411 154.735 16.7616C155.19 16.182 155.759 15.715 156.443 15.3607C157.138 15.0057 157.929 14.8023 158.815 14.7507C159.712 14.6984 160.521 14.8085 161.242 15.081C161.963 15.3535 162.582 15.7512 163.101 16.274C163.619 16.7969 164.03 17.4236 164.333 18.1543C164.635 18.8741 164.811 19.6663 164.862 20.531C164.911 21.374 164.827 22.1705 164.611 22.9206C164.393 23.6599 164.057 24.3139 163.602 24.8826C163.148 25.4513 162.578 25.9129 161.894 26.2673C161.209 26.6108 160.418 26.8088 159.521 26.8611C158.635 26.9127 157.826 26.808 157.095 26.547C156.374 26.2745 155.755 25.8822 155.237 25.3701C154.719 24.8581 154.31 24.2475 154.008 23.5385C153.706 22.8187 153.53 22.0373 153.481 21.1942Z" fill="white"/>
<path d="M170.865 14.5841L179.011 14.9114L178.924 17.0533L173.326 16.8283L173.219 19.5057L178.07 19.7007L177.991 21.6803L173.139 21.4853L172.947 26.2721L170.399 26.1697L170.865 14.5841Z" fill="white"/>
<path d="M193.577 24.2591C193.505 24.6421 193.513 24.9796 193.601 25.2717C193.689 25.5638 193.829 25.816 194.02 26.0285C194.224 26.2323 194.472 26.4059 194.764 26.5493C195.059 26.6821 195.371 26.7796 195.701 26.842C195.924 26.8842 196.166 26.9135 196.428 26.9298C196.691 26.9355 196.944 26.9063 197.188 26.8421C197.431 26.778 197.645 26.6696 197.828 26.5169C198.013 26.3535 198.133 26.1282 198.187 25.841C198.245 25.5325 198.191 25.2634 198.026 25.0337C197.87 24.8061 197.645 24.5982 197.35 24.4103C197.055 24.2223 196.714 24.0422 196.328 23.8701C195.942 23.6979 195.553 23.5141 195.16 23.3187C194.755 23.1319 194.364 22.9258 193.988 22.7005C193.614 22.4645 193.29 22.194 193.017 21.889C192.744 21.584 192.541 21.2316 192.407 20.8317C192.286 20.4232 192.275 19.9583 192.373 19.437C192.484 18.8519 192.702 18.3697 193.027 17.9905C193.365 17.6026 193.763 17.3032 194.221 17.0924C194.68 16.8816 195.178 16.7553 195.714 16.7135C196.251 16.6717 196.775 16.6991 197.285 16.7956C197.881 16.9082 198.437 17.0849 198.954 17.3257C199.483 17.5579 199.932 17.8632 200.301 18.2415C200.67 18.6198 200.933 19.0661 201.089 19.5804C201.258 20.0861 201.28 20.6687 201.155 21.3283L198.73 20.8698C198.773 20.5254 198.752 20.2294 198.666 19.9819C198.592 19.7364 198.465 19.5307 198.287 19.3648C198.109 19.199 197.892 19.0643 197.636 18.9609C197.391 18.8594 197.114 18.7795 196.806 18.7212C196.604 18.683 196.397 18.6661 196.187 18.6704C195.977 18.6748 195.777 18.7141 195.587 18.7883C195.407 18.8645 195.249 18.9723 195.112 19.1118C194.976 19.2513 194.884 19.4433 194.838 19.688C194.796 19.9114 194.804 20.1003 194.863 20.2547C194.922 20.4091 195.063 20.5679 195.285 20.7311C195.519 20.8964 195.842 21.0788 196.256 21.2782C196.681 21.4797 197.233 21.7382 197.911 22.0538C198.116 22.1365 198.393 22.2716 198.744 22.459C199.106 22.6378 199.451 22.8847 199.777 23.1997C200.103 23.5148 200.36 23.9049 200.547 24.37C200.748 24.8265 200.787 25.3739 200.667 26.0122C200.568 26.5335 200.376 26.9984 200.089 27.407C199.803 27.8156 199.426 28.1466 198.959 28.4C198.505 28.6447 197.964 28.8012 197.334 28.8694C196.714 28.9397 196.016 28.9014 195.24 28.7547C194.612 28.636 194.016 28.4406 193.45 28.1685C192.893 27.9089 192.417 27.5711 192.022 27.1548C191.637 26.7406 191.361 26.253 191.191 25.6922C191.022 25.1313 191.009 24.5008 191.152 23.8007L193.577 24.2591Z" fill="white"/>
<path d="M215.73 29.0379C215.283 30.5429 214.531 31.5392 213.471 32.0268C212.415 32.504 211.145 32.5224 209.661 32.0822C208.156 31.6358 207.096 30.9261 206.481 29.9533C205.876 28.9835 205.799 27.7409 206.248 26.2255L208.299 19.3129L210.743 20.0379L208.693 26.9506C208.603 27.2516 208.542 27.5551 208.507 27.8611C208.473 28.1671 208.505 28.4589 208.603 28.7365C208.705 29.0038 208.879 29.2531 209.127 29.4846C209.388 29.7089 209.767 29.8948 210.266 30.0426C211.137 30.3012 211.796 30.2878 212.242 30.0023C212.692 29.7064 213.039 29.1432 213.286 28.3129L215.336 21.4002L217.78 22.1252L215.73 29.0379Z" fill="white"/>
<path d="M222.725 32.0422C222.578 32.403 222.518 32.7352 222.546 33.039C222.574 33.3428 222.66 33.6179 222.805 33.8642C222.964 34.1047 223.172 34.3244 223.43 34.5233C223.692 34.7123 223.979 34.8702 224.289 34.9972C224.5 35.0832 224.731 35.1603 224.984 35.2286C225.241 35.2868 225.495 35.3088 225.747 35.2946C225.998 35.2804 226.229 35.2168 226.439 35.1038C226.653 34.9807 226.815 34.7839 226.926 34.5133C227.044 34.2227 227.045 33.9483 226.929 33.69C226.822 33.4359 226.643 33.1873 226.391 32.9442C226.14 32.701 225.842 32.4565 225.498 32.2107C225.154 31.9649 224.809 31.707 224.464 31.437C224.104 31.1729 223.762 30.8929 223.439 30.597C223.119 30.291 222.856 29.9613 222.65 29.608C222.443 29.2546 222.315 28.8686 222.263 28.4501C222.226 28.0256 222.308 27.5678 222.509 27.0767C222.734 26.5255 223.044 26.0966 223.438 25.79C223.847 25.4774 224.297 25.2636 224.788 25.1487C225.28 25.0337 225.792 25.0094 226.327 25.0758C226.861 25.1421 227.369 25.2735 227.85 25.4701C228.411 25.6995 228.92 25.9838 229.378 26.323C229.85 26.6562 230.229 27.0451 230.516 27.4895C230.802 27.9339 230.97 28.4237 231.02 28.9589C231.085 29.4881 230.99 30.0634 230.736 30.6848L228.451 29.7509C228.562 29.422 228.6 29.1278 228.566 28.8682C228.542 28.6126 228.459 28.3858 228.318 28.1878C228.177 27.9897 227.991 27.8144 227.761 27.6619C227.541 27.5135 227.286 27.3799 226.995 27.2611C226.805 27.1833 226.606 27.1255 226.399 27.0878C226.192 27.05 225.988 27.0485 225.787 27.0832C225.596 27.122 225.419 27.196 225.258 27.3054C225.096 27.4148 224.968 27.5847 224.874 27.8152C224.788 28.0256 224.758 28.2124 224.785 28.3754C224.812 28.5385 224.918 28.7222 225.104 28.9267C225.299 29.1352 225.58 29.3786 225.946 29.6567C226.321 29.939 226.81 30.3025 227.412 30.7473C227.596 30.8693 227.841 31.0571 228.147 31.3107C228.467 31.5584 228.755 31.8692 229.011 32.243C229.268 32.6169 229.442 33.0504 229.532 33.5437C229.637 34.031 229.567 34.5753 229.321 35.1766C229.12 35.6677 228.839 36.0847 228.476 36.4278C228.114 36.7709 227.679 37.02 227.171 37.175C226.677 37.3241 226.115 37.3691 225.484 37.3101C224.863 37.2552 224.187 37.0783 223.456 36.7793C222.864 36.5376 222.319 36.2269 221.819 35.8472C221.325 35.4816 220.926 35.0555 220.622 34.5687C220.328 34.086 220.154 33.5529 220.101 32.9695C220.047 32.386 220.16 31.7656 220.44 31.1083L222.725 32.0422Z" fill="white"/>
<path d="M238.9 33.0432L235.809 31.4545L236.789 29.548L245.239 33.8911L244.259 35.7976L241.168 34.2088L236.847 42.6147L234.579 41.4491L238.9 33.0432Z" fill="white"/>
<path d="M247.449 43.3924L249.991 44.9943L251.023 40.6155L250.996 40.5982L247.449 43.3924ZM251.448 37.5048L253.66 38.8989L251.146 51.0201L248.906 49.6087L249.541 46.9567L245.873 44.6447L243.727 46.3443L241.556 44.9762L251.448 37.5048Z" fill="white"/>
<path d="M261.27 43.9779L263.32 45.4935L256.428 54.8173L254.377 53.3017L261.27 43.9779Z" fill="white"/>
<path d="M268.237 49.1067L270.15 50.7671L268.707 59.8139L268.731 59.8352L273.83 53.9602L275.633 55.5248L268.033 64.2821L266.108 62.6111L267.552 53.5871L267.528 53.5659L262.44 59.4286L260.637 57.864L268.237 49.1067Z" fill="white"/>
<path d="M277.37 67.0712L279.431 69.2568L281.524 65.2742L281.501 65.2506L277.37 67.0712ZM282.711 62.3681L284.505 64.2702L279.045 75.3801L277.229 73.4544L278.506 71.0448L275.531 67.8904L273.028 69.0004L271.268 67.1338L282.711 62.3681Z" fill="white"/>
<path d="M288.745 76.1738L290.324 78.2169C290.602 78.5767 290.916 78.806 291.266 78.9049C291.616 79.0037 291.984 78.9042 292.37 78.6063C292.584 78.4408 292.73 78.2665 292.807 78.0835C292.885 77.9005 292.912 77.7149 292.89 77.5268C292.868 77.3388 292.803 77.1491 292.697 76.9579C292.605 76.7687 292.49 76.5841 292.351 76.4043L290.891 74.5154L288.745 76.1738ZM290.9 71.2865L294.236 75.6039C294.574 76.0408 294.843 76.4689 295.044 76.8882C295.245 77.3076 295.355 77.7153 295.374 78.1113C295.401 78.5007 295.322 78.8765 295.137 79.2386C294.958 79.6094 294.654 79.9602 294.226 80.2912C293.764 80.6488 293.295 80.8396 292.821 80.8638C292.354 80.8965 291.863 80.7835 291.348 80.5245C291.622 81.2157 291.66 81.8572 291.461 82.4491C291.276 83.043 290.897 83.5617 290.324 84.0053C289.861 84.3628 289.389 84.584 288.907 84.6689C288.434 84.7472 287.971 84.7149 287.519 84.5721C287.073 84.4378 286.646 84.2133 286.239 83.8987C285.838 83.5927 285.479 83.2341 285.161 82.8229L281.725 78.3771L290.9 71.2865ZM284.852 79.1829L286.52 81.3415C286.673 81.5385 286.835 81.7138 287.009 81.8672C287.19 82.014 287.377 82.1228 287.569 82.1936C287.769 82.2579 287.976 82.2689 288.19 82.2269C288.41 82.1934 288.64 82.0839 288.88 81.8986C289.351 81.5344 289.583 81.1435 289.574 80.7256C289.575 80.3012 289.406 79.8705 289.068 79.4337L287.37 77.2364L284.852 79.1829Z" fill="white"/>
<path d="M300.184 83.7189L301.585 85.8492L291.897 92.2201L290.496 90.0899L300.184 83.7189Z" fill="white"/>
<path d="M304.848 90.8604L306.097 93.0827L297.859 97.7157L300.63 102.641L298.761 103.692L294.741 96.5442L304.848 90.8604Z" fill="white"/>
<path d="M311.234 102.625L312.326 104.929L301.848 109.894L300.756 107.59L311.234 102.625Z" fill="white"/>
<path d="M313.786 113.47L312.523 110.232L314.52 109.453L317.974 118.303L315.977 119.082L314.713 115.845L305.909 119.281L304.982 116.906L313.786 113.47Z" fill="white"/>
<path d="M313.846 128.27L319.482 122.231L320.269 124.979L316.612 128.846L321.757 130.178L322.539 132.91L314.485 130.739L310.208 131.963L309.506 129.512L313.846 128.27Z" fill="white"/>
<path d="M318.889 147.298C319.167 147.256 319.424 147.322 319.657 147.495C319.891 147.668 320.029 147.893 320.071 148.172C320.113 148.45 320.047 148.706 319.874 148.94C319.702 149.174 319.476 149.312 319.198 149.354C318.941 149.392 318.69 149.326 318.445 149.155C318.2 148.983 318.058 148.764 318.018 148.496C317.976 148.218 318.041 147.956 318.212 147.712C318.385 147.478 318.611 147.34 318.889 147.298Z" fill="white"/>
<path d="M24.5512 164.647L24.5031 166.189L12.9133 165.842L12.9613 164.3L24.5512 164.647Z" fill="white"/>
<path d="M24.2154 171.864L24.294 173.502L15.1945 180.051L15.1961 180.083L24.588 179.634L24.658 181.093L13.0762 181.648L12.9953 179.961L21.9998 173.466L21.9983 173.433L12.7037 173.878L12.6337 172.418L24.2154 171.864Z" fill="white"/>
<path d="M15.0442 189.963L15.4323 192.499C15.4585 192.67 15.5019 192.883 15.5626 193.136C15.634 193.388 15.74 193.651 15.8806 193.926C16.0318 194.199 16.2251 194.459 16.4604 194.709C16.6973 194.968 16.9988 195.186 17.3651 195.36C17.7313 195.535 18.1712 195.654 18.6849 195.719C19.211 195.793 19.8273 195.776 20.5338 195.669C21.2189 195.566 21.8184 195.404 22.3323 195.184C22.8586 194.973 23.2853 194.684 23.6125 194.317C23.952 193.959 24.1813 193.524 24.3003 193.014C24.43 192.501 24.4408 191.892 24.3327 191.186L23.9397 188.617L15.0442 189.963ZM24.9909 186.898L25.5927 190.831C25.8629 192.597 25.6213 194.024 24.8678 195.112C24.1144 196.201 22.817 196.884 20.9759 197.163C20.0124 197.308 19.1397 197.331 18.3576 197.23C17.5863 197.128 16.9093 196.891 16.3267 196.519C15.7548 196.146 15.2818 195.631 14.9078 194.976C14.5337 194.321 14.2738 193.517 14.1281 192.565L13.5263 188.632L24.9909 186.898Z" fill="white"/>
<path d="M27.5254 202.019L27.8788 203.521L16.5842 206.143L16.2309 204.641L27.5254 202.019Z" fill="white"/>
<path d="M23.1999 212.951L24.3856 216.698L28.9648 213.245L28.955 213.214L23.1999 212.951ZM30.0433 212.024L30.5577 213.649L20.8561 221.423L20.3416 219.797L23.2924 217.549L21.8127 212.873L18.0877 212.675L17.6124 211.173L30.0433 212.024Z" fill="white"/>
<path d="M33.2978 222.229L33.949 223.734L27.7237 233.025L27.7366 233.055L36.3863 229.368L36.9666 230.71L26.3001 235.256L25.6295 233.706L31.7846 224.498L31.7717 224.468L23.2116 228.117L22.6313 226.776L33.2978 222.229Z" fill="white"/>
<path d="M43.4343 243.394L44.2303 244.715L34.2576 250.63L33.4616 249.309L43.4343 243.394Z" fill="white"/>
<path d="M47.0372 249.589L47.9914 250.923L43.8558 261.303L43.8747 261.329L51.5626 255.916L52.4129 257.104L42.9325 263.78L41.9499 262.406L46.0342 252.122L46.0153 252.096L38.407 257.453L37.5567 256.264L47.0372 249.589Z" fill="white"/>
<path d="M57.8645 269.223C58.4386 268.613 58.6937 267.993 58.6298 267.361C58.5813 266.731 58.2929 266.115 57.7648 265.512C57.5507 265.268 57.3155 265.049 57.0594 264.856C56.8032 264.662 56.5357 264.521 56.2568 264.433C55.985 264.353 55.7008 264.341 55.4041 264.396C55.1228 264.453 54.8387 264.605 54.5518 264.853C54.2813 265.086 54.1278 265.355 54.0913 265.658C54.0701 265.962 54.1204 266.29 54.2422 266.643C54.3712 267.003 54.5451 267.382 54.7639 267.78C54.991 268.17 55.2134 268.572 55.4312 268.984C55.6561 269.405 55.8575 269.832 56.0354 270.265C56.2214 270.69 56.3344 271.115 56.3742 271.538C56.4212 271.969 56.3691 272.386 56.2178 272.788C56.0736 273.199 55.7843 273.591 55.3499 273.966C54.8827 274.369 54.3882 274.61 53.8666 274.688C53.3603 274.768 52.8578 274.736 52.3592 274.595C51.8688 274.446 51.4001 274.207 50.9531 273.878C50.505 273.564 50.1061 273.207 49.7564 272.808C49.3282 272.32 48.9828 271.803 48.7204 271.257C48.4651 270.719 48.3141 270.178 48.2674 269.632C48.236 269.087 48.3273 268.551 48.5413 268.023C48.7706 267.496 49.1516 267.003 49.6844 266.543L50.6479 267.642C50.2791 267.96 50.02 268.305 49.8709 268.677C49.737 269.05 49.684 269.425 49.7117 269.801C49.7465 270.186 49.8585 270.568 50.0478 270.948C50.237 271.328 50.4744 271.681 50.7599 272.007C50.9882 272.267 51.2412 272.507 51.5188 272.725C51.8035 272.951 52.096 273.12 52.3963 273.233C52.7048 273.339 53.0187 273.368 53.3378 273.321C53.6569 273.275 53.9763 273.114 54.296 272.838C54.5993 272.576 54.7738 272.283 54.8196 271.957C54.8725 271.64 54.8386 271.297 54.7178 270.93C54.6124 270.563 54.4503 270.181 54.2314 269.784C54.0126 269.386 53.7866 268.981 53.5535 268.567C53.3357 268.154 53.1297 267.739 52.9354 267.32C52.7494 266.894 52.6205 266.476 52.5489 266.066C52.4927 265.657 52.5244 265.258 52.6439 264.869C52.7788 264.481 53.0471 264.114 53.4487 263.767C53.8914 263.385 54.351 263.146 54.8277 263.049C55.3126 262.945 55.786 262.952 56.2479 263.068C56.7251 263.185 57.177 263.389 57.6037 263.678C58.0457 263.969 58.4415 264.314 58.7912 264.713C59.1838 265.16 59.4945 265.622 59.7234 266.096C59.9522 266.571 60.0768 267.049 60.0971 267.532C60.1245 268.023 60.0334 268.502 59.8236 268.969C59.6292 269.437 59.2974 269.888 58.828 270.322L57.8645 269.223Z" fill="white"/>
<path d="M66.051 274.909L63.2511 272.244L64.1543 271.31L70.8716 277.703L69.9684 278.637L67.1685 275.972L60.0106 283.373L58.893 282.309L66.051 274.909Z" fill="white"/>
<path d="M74.6428 281.084L75.832 282.066L68.3734 290.944L67.1842 289.961L74.6428 281.084Z" fill="white"/>
<path d="M81.6233 288.35L78.4792 286.102L79.2431 285.051L86.7863 290.444L86.0225 291.495L82.8783 289.247L76.8245 297.575L75.5695 296.678L81.6233 288.35Z" fill="white"/>
<path d="M94.7961 304.162C94.0439 305.44 93.1363 306.203 92.0734 306.451C91.0159 306.69 89.8547 306.443 88.5896 305.711C87.2964 304.963 86.4627 304.074 86.0887 303.045C85.7295 302.012 85.9425 300.828 86.7277 299.494L90.4833 293.111L91.8186 293.884L88.063 300.266C87.5359 301.162 87.3741 301.981 87.5775 302.724C87.7863 303.458 88.3406 304.085 89.2402 304.606C90.093 305.099 90.8741 305.245 91.5836 305.042C92.3079 304.836 92.9336 304.285 93.4607 303.389L97.2163 297.007L98.5517 297.779L94.7961 304.162Z" fill="white"/>
<path d="M105.736 303.003L102.219 301.399L102.766 300.221L111.203 304.068L110.656 305.247L107.14 303.643L102.806 312.982L101.402 312.342L105.736 303.003Z" fill="white"/>
<path d="M115.496 305.984L123.049 308.638L122.612 309.861L116.514 307.719L115.273 311.19L120.957 313.187L120.52 314.41L114.835 312.413L113.485 316.19L119.629 318.348L119.191 319.572L111.592 316.902L115.496 305.984Z" fill="white"/>
<path d="M135.488 318.311C135.38 318.886 135.347 319.469 135.389 320.06C135.434 320.641 135.574 321.184 135.809 321.69C136.044 322.196 136.385 322.634 136.833 323.003C137.283 323.362 137.854 323.605 138.546 323.733C139.238 323.861 139.859 323.839 140.41 323.665C140.963 323.481 141.441 323.195 141.844 322.808C142.248 322.42 142.577 321.964 142.83 321.438C143.086 320.902 143.268 320.346 143.376 319.772C143.485 319.197 143.517 318.62 143.472 318.039C143.43 317.448 143.291 316.899 143.056 316.393C142.821 315.887 142.479 315.455 142.028 315.096C141.58 314.727 141.01 314.478 140.318 314.35C139.626 314.222 139.004 314.25 138.452 314.434C137.901 314.607 137.424 314.888 137.02 315.275C136.616 315.663 136.287 316.125 136.031 316.661C135.778 317.187 135.597 317.737 135.488 318.311ZM133.971 318.03C134.118 317.254 134.37 316.53 134.728 315.858C135.099 315.178 135.566 314.604 136.128 314.136C136.69 313.667 137.343 313.331 138.087 313.128C138.83 312.924 139.655 312.906 140.559 313.073C141.464 313.241 142.226 313.553 142.845 314.009C143.464 314.465 143.95 315.012 144.304 315.65C144.657 316.287 144.877 316.989 144.964 317.754C145.064 318.51 145.04 319.276 144.893 320.053C144.747 320.829 144.488 321.558 144.117 322.238C143.759 322.909 143.299 323.479 142.737 323.947C142.174 324.416 141.521 324.752 140.778 324.955C140.036 325.148 139.213 325.161 138.308 324.994C137.403 324.826 136.64 324.52 136.019 324.074C135.4 323.618 134.914 323.071 134.561 322.434C134.208 321.796 133.981 321.099 133.882 320.342C133.795 319.578 133.825 318.807 133.971 318.03Z" fill="white"/>
<path d="M151.55 315.245L159.138 315.896L159.024 317.19L152.973 316.671L152.65 320.343L157.957 320.799L157.844 322.093L152.537 321.637L152.072 326.927L150.534 326.795L151.55 315.245Z" fill="white"/>
<path d="M175.25 317.531L171.391 317.746L171.318 316.449L180.577 315.933L180.649 317.23L176.79 317.445L177.366 327.725L175.825 327.811L175.25 317.531Z" fill="white"/>
<path d="M185.202 315.64L193.125 314.488L193.314 315.774L186.918 316.704L187.454 320.351L193.417 319.484L193.606 320.769L187.643 321.636L188.227 325.605L194.672 324.668L194.861 325.953L186.89 327.112L185.202 315.64Z" fill="white"/>
<path d="M207.262 315.119C206.893 314.362 206.37 313.857 205.691 313.601C205.024 313.343 204.296 313.312 203.508 313.508C202.835 313.675 202.289 313.944 201.869 314.316C201.46 314.686 201.152 315.125 200.945 315.633C200.746 316.129 200.641 316.668 200.632 317.251C200.622 317.833 200.691 318.418 200.839 319.006C201.001 319.647 201.227 320.237 201.52 320.778C201.81 321.309 202.161 321.751 202.574 322.106C202.995 322.448 203.479 322.684 204.026 322.816C204.573 322.948 205.182 322.931 205.855 322.764C206.348 322.641 206.765 322.454 207.103 322.203C207.45 321.938 207.724 321.63 207.926 321.279C208.135 320.914 208.269 320.513 208.326 320.075C208.383 319.637 208.369 319.183 208.285 318.713L209.782 318.341C209.992 319.795 209.781 321.019 209.149 322.012C208.517 323.006 207.481 323.682 206.042 324.039C205.17 324.256 204.371 324.298 203.645 324.166C202.917 324.023 202.272 323.743 201.709 323.325C201.146 322.907 200.664 322.368 200.264 321.709C199.874 321.048 199.576 320.307 199.37 319.488C199.164 318.669 199.086 317.874 199.138 317.103C199.186 316.321 199.364 315.608 199.671 314.963C199.988 314.315 200.439 313.757 201.024 313.288C201.617 312.806 202.345 312.458 203.206 312.244C203.795 312.098 204.371 312.038 204.936 312.065C205.501 312.092 206.027 312.207 206.513 312.41C207 312.612 207.438 312.911 207.827 313.305C208.214 313.689 208.525 314.169 208.76 314.747L207.262 315.119Z" fill="white"/>
<path d="M213.231 309.987L214.682 309.461L216.403 314.14L222.143 312.059L220.422 307.38L221.873 306.855L225.875 317.737L224.425 318.263L222.592 313.279L216.851 315.36L218.684 320.344L217.234 320.869L213.231 309.987Z" fill="white"/>
<path d="M227.575 304.726L229.05 304.009L238.703 309.77L238.733 309.756L234.571 301.325L235.885 300.686L241.017 311.083L239.498 311.821L229.932 306.126L229.903 306.14L234.022 314.484L232.707 315.123L227.575 304.726Z" fill="white"/>
<path d="M245.105 302.46C245.419 302.953 245.794 303.402 246.23 303.806C246.66 304.201 247.135 304.504 247.654 304.716C248.173 304.928 248.723 305.018 249.306 304.986C249.882 304.944 250.469 304.737 251.066 304.364C251.662 303.991 252.104 303.556 252.39 303.057C252.671 302.55 252.827 302.018 252.859 301.462C252.891 300.906 252.82 300.351 252.647 299.795C252.468 299.23 252.221 298.701 251.908 298.207C251.595 297.714 251.223 297.27 250.793 296.875C250.357 296.471 249.879 296.163 249.36 295.951C248.841 295.739 248.293 295.654 247.716 295.695C247.134 295.727 246.545 295.93 245.948 296.303C245.351 296.676 244.912 297.116 244.632 297.623C244.345 298.122 244.186 298.649 244.155 299.205C244.123 299.761 244.197 300.321 244.376 300.886C244.549 301.441 244.792 301.966 245.105 302.46ZM243.797 303.277C243.374 302.61 243.064 301.91 242.868 301.177C242.675 300.429 242.626 299.695 242.719 298.973C242.812 298.25 243.062 297.564 243.47 296.914C243.877 296.263 244.471 295.694 245.252 295.206C246.032 294.718 246.806 294.432 247.573 294.348C248.341 294.264 249.073 294.337 249.769 294.565C250.466 294.794 251.107 295.159 251.695 295.66C252.286 296.146 252.793 296.722 253.216 297.39C253.64 298.057 253.948 298.764 254.141 299.512C254.337 300.245 254.388 300.973 254.295 301.695C254.202 302.417 253.952 303.103 253.544 303.754C253.131 304.395 252.534 304.96 251.753 305.447C250.973 305.935 250.202 306.226 249.44 306.319C248.673 306.403 247.941 306.33 247.245 306.102C246.548 305.873 245.904 305.516 245.314 305.03C244.726 304.529 244.221 303.945 243.797 303.277Z" fill="white"/>
<path d="M254.77 289.39L255.995 288.453L262.316 296.579L267.19 292.848L267.988 293.873L261.889 298.543L254.77 289.39Z" fill="white"/>
<path d="M268.739 285.907C269.14 286.332 269.593 286.702 270.097 287.017C270.595 287.323 271.118 287.531 271.669 287.641C272.219 287.751 272.777 287.735 273.343 287.594C273.901 287.445 274.439 287.131 274.954 286.652C275.47 286.173 275.822 285.663 276.009 285.119C276.189 284.569 276.242 284.017 276.168 283.466C276.094 282.914 275.92 282.382 275.645 281.869C275.362 281.348 275.02 280.875 274.619 280.45C274.218 280.025 273.769 279.659 273.271 279.352C272.767 279.038 272.239 278.826 271.689 278.716C271.139 278.606 270.585 278.626 270.026 278.775C269.46 278.916 268.919 279.226 268.403 279.705C267.887 280.184 267.54 280.699 267.36 281.249C267.172 281.793 267.116 282.34 267.19 282.892C267.263 283.443 267.442 283.98 267.724 284.5C267.999 285.013 268.338 285.482 268.739 285.907ZM267.608 286.957C267.066 286.382 266.629 285.753 266.298 285.07C265.967 284.373 265.78 283.661 265.735 282.935C265.69 282.208 265.806 281.488 266.084 280.772C266.361 280.057 266.837 279.386 267.512 278.76C268.186 278.134 268.893 277.707 269.631 277.48C270.369 277.253 271.102 277.186 271.829 277.279C272.557 277.372 273.256 277.609 273.928 277.99C274.6 278.355 275.208 278.826 275.75 279.401C276.292 279.976 276.728 280.612 277.059 281.31C277.39 281.992 277.578 282.696 277.623 283.422C277.668 284.149 277.552 284.87 277.274 285.585C276.989 286.293 276.509 286.959 275.835 287.585C275.16 288.211 274.458 288.642 273.727 288.877C272.989 289.104 272.256 289.171 271.528 289.078C270.801 288.985 270.101 288.756 269.429 288.39C268.757 288.009 268.15 287.531 267.608 286.957Z" fill="white"/>
<path d="M289.099 271.511C289.26 272.248 289.223 272.958 288.988 273.64C288.744 274.315 288.398 274.91 287.949 275.424C287.38 276.077 286.752 276.558 286.066 276.868C285.371 277.17 284.662 277.325 283.938 277.332C283.214 277.338 282.503 277.206 281.805 276.936C281.107 276.665 280.471 276.283 279.896 275.79C279.255 275.24 278.721 274.633 278.295 273.968C277.869 273.288 277.587 272.59 277.45 271.874C277.321 271.149 277.352 270.421 277.546 269.688C277.738 268.94 278.137 268.22 278.742 267.526C279.154 267.053 279.6 266.657 280.078 266.34C280.555 266.007 281.054 265.78 281.577 265.658C282.107 265.528 282.653 265.511 283.215 265.608C283.776 265.69 284.351 265.912 284.94 266.274L283.926 267.437C283.539 267.205 283.159 267.064 282.785 267.015C282.404 266.959 282.035 266.978 281.68 267.072C281.324 267.167 280.982 267.329 280.652 267.56C280.32 267.775 280.012 268.045 279.728 268.372C279.265 268.902 278.974 269.451 278.853 270.018C278.739 270.576 278.752 271.129 278.892 271.677C279.031 272.21 279.277 272.727 279.629 273.229C279.973 273.724 280.379 274.172 280.848 274.574C281.308 274.969 281.809 275.284 282.35 275.52C282.883 275.749 283.424 275.878 283.973 275.907C284.514 275.929 285.043 275.841 285.561 275.643C286.077 275.43 286.549 275.078 286.976 274.589C287.374 274.132 287.652 273.665 287.81 273.187C287.968 272.709 288.023 272.243 287.975 271.787C287.925 271.317 287.781 270.873 287.543 270.454C287.296 270.029 286.965 269.651 286.548 269.322L284.114 272.113L283.128 271.267L286.469 267.436L291.103 271.412L290.463 272.146L289.099 271.511Z" fill="white"/>
<path d="M293.921 260.036L297.81 262.75L296.917 264.008L293.028 261.294L284.815 261.026L285.877 259.53L292.416 259.856L289.853 253.928L290.868 252.498L293.921 260.036Z" fill="white"/>
<path d="M297.655 241.779L298.346 240.4L303.533 242.952L300.977 235.143L301.871 233.356L303.88 239.792L312.362 238.3L311.49 240.043L304.355 241.202L305.107 243.726L308.75 245.518L308.06 246.898L297.655 241.779Z" fill="white"/>
<path d="M311.041 229.572L312.447 225.902L306.694 225.802L306.683 225.832L311.041 229.572ZM305.085 226.099L305.695 224.506L318.168 224.359L317.558 225.952L313.837 225.905L312.083 230.485L314.886 232.928L314.322 234.399L305.085 226.099Z" fill="white"/>
<path d="M308.922 215.998L309.349 214.415L320.028 210.924L320.036 210.893L310.946 208.488L311.327 207.076L322.536 210.042L322.097 211.673L311.524 215.141L311.516 215.173L320.512 217.553L320.131 218.964L308.922 215.998Z" fill="white"/>
<path d="M318.5 200.754L318.989 197.774C319.142 196.91 319.069 196.251 318.77 195.798C318.473 195.333 317.983 195.046 317.299 194.936C316.615 194.826 316.063 194.945 315.644 195.295C315.215 195.631 314.93 196.233 314.788 197.098L314.299 200.079L318.5 200.754ZM312.766 201.395L313.59 196.379C313.779 195.225 314.221 194.402 314.916 193.911C315.602 193.407 316.48 193.242 317.549 193.413C318.618 193.585 319.402 194.019 319.903 194.713C320.405 195.397 320.556 196.315 320.356 197.467L319.782 200.961L324.464 201.714L324.214 203.236L312.766 201.395Z" fill="white"/>
<path d="M322.967 178.739C324.448 178.828 325.537 179.289 326.234 180.123C326.92 180.956 327.218 182.101 327.128 183.56C327.036 185.051 326.613 186.197 325.859 186.998C325.094 187.788 323.939 188.136 322.394 188.043L315.002 187.6L315.097 186.06L322.489 186.503C323.526 186.566 324.332 186.337 324.907 185.819C325.47 185.299 325.784 184.521 325.848 183.484C325.908 182.5 325.689 181.739 325.191 181.199C324.683 180.648 323.91 180.341 322.872 180.279L315.48 179.836L315.575 178.296L322.967 178.739Z" fill="white"/>
<path d="M315.871 172.203L315.643 166.751C315.597 165.648 315.831 164.777 316.346 164.137C316.861 163.487 317.589 163.143 318.53 163.103C319.233 163.074 319.856 163.21 320.4 163.513C320.943 163.804 321.326 164.298 321.551 164.993L321.583 164.991C321.634 164.653 321.731 164.378 321.874 164.166C322.016 163.944 322.193 163.768 322.404 163.64C322.604 163.502 322.833 163.4 323.09 163.335C323.347 163.259 323.616 163.2 323.896 163.155C324.176 163.122 324.462 163.094 324.753 163.071C325.045 163.048 325.331 163.009 325.61 162.954C325.889 162.899 326.157 162.828 326.414 162.741C326.659 162.644 326.876 162.511 327.063 162.34L327.135 164.06C327.021 164.173 326.862 164.256 326.658 164.308C326.454 164.349 326.228 164.38 325.979 164.401C325.72 164.423 325.445 164.445 325.153 164.468C324.862 164.491 324.576 164.535 324.297 164.601C324.018 164.656 323.755 164.722 323.509 164.797C323.252 164.873 323.035 164.985 322.857 165.133C322.668 165.282 322.524 165.472 322.425 165.704C322.316 165.936 322.269 166.241 322.285 166.62L322.442 170.384L327.391 170.177L327.455 171.718L315.871 172.203ZM321.01 167.226C320.995 166.869 320.954 166.529 320.886 166.207C320.819 165.885 320.704 165.608 320.543 165.376C320.37 165.134 320.151 164.948 319.885 164.818C319.609 164.678 319.259 164.617 318.837 164.635C318.253 164.659 317.784 164.841 317.43 165.181C317.076 165.521 316.914 166.053 316.944 166.778L317.104 170.607L321.144 170.438L321.01 167.226Z" fill="white"/>
<path d="M320.533 148.554C320.256 148.602 319.998 148.543 319.76 148.375C319.521 148.208 319.378 147.986 319.329 147.709C319.28 147.432 319.339 147.174 319.506 146.936C319.672 146.698 319.895 146.555 320.172 146.507C320.428 146.462 320.68 146.522 320.929 146.688C321.178 146.853 321.326 147.069 321.374 147.336C321.422 147.613 321.364 147.876 321.199 148.124C321.033 148.362 320.81 148.505 320.533 148.554Z" fill="white"/>
<path d="M20.1984 145.146C20.4765 145.189 20.7011 145.328 20.8722 145.563C21.0432 145.798 21.1067 146.054 21.0627 146.332C21.0186 146.61 20.8788 146.835 20.6434 147.006C20.4079 147.178 20.1511 147.242 19.873 147.199C19.6162 147.159 19.3969 147.021 19.2152 146.785C19.0334 146.548 18.9637 146.296 19.0061 146.029C19.0502 145.751 19.1908 145.521 19.4279 145.339C19.6634 145.167 19.9202 145.103 20.1984 145.146Z" fill="white"/>
</svg>
